<svg width="1053" height="893" viewBox="0 0 1053 893" fill="none" xmlns="http://www.w3.org/2000/svg">
<g clip-path="url(#clip0_227_5)">
<rect width="1053" height="893" fill="white"/>
<path d="M1.22656 21.4011C1.22656 16.0287 3.36071 10.8764 7.15955 7.07755C10.9584 3.2787 16.1107 1.14453 21.4831 1.14453H1032.29C1037.66 1.14453 1042.81 3.2787 1046.61 7.07755C1050.41 10.8764 1052.54 16.0287 1052.54 21.4011V872.178C1052.54 877.55 1050.41 882.702 1046.61 886.501C1042.81 890.3 1037.66 892.434 1032.29 892.434H21.4831C16.1107 892.434 10.9584 890.3 7.15955 886.501C3.36071 882.702 1.22656 877.55 1.22656 872.178V21.4011Z" fill="white"/>
<path d="M1.22656 163.197V21.4011C1.22656 16.0287 3.36071 10.8764 7.15955 7.07755C10.9584 3.2787 16.1107 1.14453 21.4831 1.14453H1032.29C1037.66 1.14453 1042.81 3.2787 1046.61 7.07755C1050.41 10.8764 1052.54 16.0287 1052.54 21.4011V163.197" fill="#DEDEFF"/>
<path d="M1.22656 163.197H1052.54M561.442 163.197V892.434M1.22656 21.4011C1.22656 16.0287 3.36071 10.8764 7.15955 7.07755C10.9584 3.2787 16.1107 1.14453 21.4831 1.14453H1032.29C1037.66 1.14453 1042.81 3.2787 1046.61 7.07755C1050.41 10.8764 1052.54 16.0287 1052.54 21.4011V872.178C1052.54 877.55 1050.41 882.702 1046.61 886.501C1042.81 890.3 1037.66 892.434 1032.29 892.434H21.4831C16.1107 892.434 10.9584 890.3 7.15955 886.501C3.36071 882.702 1.22656 877.55 1.22656 872.178V21.4011Z" stroke="#282C33"/>
<path d="M57.3433 107.702C50.3229 107.702 44.7266 103.596 44.7266 96.3109C44.7266 87.8335 52.2767 86.2771 59.1315 85.4161C65.8206 84.522 68.6354 84.8863 68.6354 81.8397C68.6354 77.2368 66.0193 74.5876 60.8865 74.5876C55.5551 74.5876 52.6741 77.4355 51.5151 80.0184L45.7862 78.1309C48.6341 71.4086 54.9921 69.3555 60.721 69.3555C65.6882 69.3555 74.596 70.8787 74.596 82.4358V106.841H68.7347V101.808H68.3374C67.079 104.424 63.602 107.702 57.3433 107.702ZM58.3698 102.437C64.9597 102.437 68.6354 97.9997 68.6354 93.463V88.3302C67.6419 89.4892 61.1515 90.1515 58.8665 90.4496C54.5285 91.0125 50.7203 92.4033 50.7203 96.6089C50.7203 100.45 53.9325 102.437 58.3698 102.437Z" fill="black"/>
<path d="M98.9367 107.636C89.6977 107.636 83.2734 100.218 83.2734 88.4292C83.2734 76.7066 89.7308 69.3551 98.9698 69.3551C106.189 69.3551 108.474 73.7925 109.699 75.7462H110.163V57.5H116.123V106.841H110.361V101.112H109.699C108.474 103.165 105.99 107.636 98.9367 107.636ZM99.8308 102.304C106.553 102.304 110.229 96.6085 110.229 88.363C110.229 80.1836 106.652 74.6866 99.8308 74.6866C92.8105 74.6866 89.3334 80.6803 89.3334 88.363C89.3334 96.1449 92.9098 102.304 99.8308 102.304Z" fill="black"/>
<path d="M140.46 107.636C131.221 107.636 124.797 100.218 124.797 88.4292C124.797 76.7066 131.254 69.3551 140.493 69.3551C147.712 69.3551 149.997 73.7925 151.222 75.7462H151.686V57.5H157.647V106.841H151.885V101.112H151.222C149.997 103.165 147.514 107.636 140.46 107.636ZM141.354 102.304C148.077 102.304 151.752 96.6085 151.752 88.363C151.752 80.1836 148.176 74.6866 141.354 74.6866C134.334 74.6866 130.857 80.6803 130.857 88.363C130.857 96.1449 134.433 102.304 141.354 102.304Z" fill="black"/>
<path d="M168.109 106.841V69.8189H173.871V75.5146H174.269C175.626 71.7727 179.468 69.2891 183.872 69.2891C184.733 69.2891 186.19 69.3553 186.885 69.3884V75.3822C186.521 75.3159 184.899 75.051 183.309 75.051C177.978 75.051 174.07 78.6605 174.07 83.6609V106.841H168.109Z" fill="black"/>
<path d="M208.079 107.636C197.35 107.636 190.727 100.02 190.727 88.6283C190.727 77.2699 197.283 69.3555 207.383 69.3555C215.231 69.3555 223.51 74.1902 223.51 87.8666V90.3502H196.753C197.051 98.0991 201.555 102.338 208.112 102.338C212.483 102.338 215.761 100.417 217.152 96.642L222.914 98.2315C221.192 103.828 215.662 107.636 208.079 107.636ZM196.787 85.3168H217.45C216.887 79.025 213.476 74.6538 207.383 74.6538C201.025 74.6538 197.151 79.6542 196.787 85.3168Z" fill="black"/>
<path d="M244.638 107.636C237.021 107.636 231.723 104.258 230.398 97.8673L236.061 96.5096C237.121 100.583 240.134 102.404 244.572 102.404C249.737 102.404 253.049 99.8542 253.049 96.8076C253.049 94.2578 251.261 92.5689 247.618 91.7079L241.459 90.2509C234.736 88.6614 231.524 85.3499 231.524 80.1509C231.524 73.7928 237.353 69.3555 245.234 69.3555C252.85 69.3555 256.857 73.0643 258.546 78.2633L253.148 79.6542C252.122 77.005 250.035 74.422 245.267 74.422C240.863 74.422 237.551 76.7069 237.551 79.7866C237.551 82.5351 239.439 84.0584 243.777 85.085L249.373 86.4096C256.095 87.9991 259.241 91.3437 259.241 96.4102C259.241 102.901 253.314 107.636 244.638 107.636Z" fill="black"/>
<path d="M280.435 107.636C272.818 107.636 267.52 104.258 266.195 97.8673L271.858 96.5096C272.918 100.583 275.931 102.404 280.368 102.404C285.534 102.404 288.846 99.8542 288.846 96.8076C288.846 94.2578 287.058 92.5689 283.415 91.7079L277.256 90.2509C270.533 88.6614 267.321 85.3499 267.321 80.1509C267.321 73.7928 273.149 69.3555 281.031 69.3555C288.647 69.3555 292.654 73.0643 294.343 78.2633L288.945 79.6542C287.919 77.005 285.832 74.422 281.064 74.422C276.66 74.422 273.348 76.7069 273.348 79.7866C273.348 82.5351 275.236 84.0584 279.574 85.085L285.17 86.4096C291.892 87.9991 295.038 91.3437 295.038 96.4102C295.038 102.901 289.111 107.636 280.435 107.636Z" fill="black"/>
<path d="M319.211 107.636C308.482 107.636 301.859 100.02 301.859 88.6283C301.859 77.2699 308.416 69.3555 318.516 69.3555C326.364 69.3555 334.643 74.1902 334.643 87.8666V90.3502H307.886C308.184 98.0991 312.688 102.338 319.245 102.338C323.616 102.338 326.894 100.417 328.285 96.642L334.047 98.2315C332.325 103.828 326.795 107.636 319.211 107.636ZM307.919 85.3168H328.583C328.02 79.025 324.609 74.6538 318.516 74.6538C312.158 74.6538 308.284 79.6542 307.919 85.3168Z" fill="black"/>
<path d="M355.771 107.636C348.154 107.636 342.856 104.258 341.531 97.8673L347.194 96.5096C348.254 100.583 351.267 102.404 355.704 102.404C360.87 102.404 364.182 99.8542 364.182 96.8076C364.182 94.2578 362.394 92.5689 358.751 91.7079L352.592 90.2509C345.869 88.6614 342.657 85.3499 342.657 80.1509C342.657 73.7928 348.485 69.3555 356.367 69.3555C363.983 69.3555 367.99 73.0643 369.679 78.2633L364.281 79.6542C363.255 77.005 361.168 74.422 356.4 74.422C351.996 74.422 348.684 76.7069 348.684 79.7866C348.684 82.5351 350.572 84.0584 354.91 85.085L360.506 86.4096C367.228 87.9991 370.374 91.3437 370.374 96.4102C370.374 102.901 364.447 107.636 355.771 107.636Z" fill="black"/>
<path d="M26.7197 248.637V211.615H32.6803V248.637H26.7197ZM29.7331 205.555C27.4813 205.555 25.5938 203.8 25.5938 201.614C25.5938 199.429 27.4813 197.674 29.7331 197.674C32.018 197.674 33.9055 199.429 33.9055 201.614C33.9055 203.8 32.018 205.555 29.7331 205.555Z" fill="black"/>
<path d="M57.0226 249.433C47.7836 249.433 41.3594 242.015 41.3594 230.226C41.3594 218.503 47.8167 211.152 57.0558 211.152C64.2748 211.152 66.5597 215.589 67.7849 217.543H68.2485V199.297H74.2092V248.638H68.4472V242.909H67.7849C66.5597 244.962 64.0761 249.433 57.0226 249.433ZM57.9167 244.101C64.639 244.101 68.3148 238.405 68.3148 230.16C68.3148 221.98 64.7384 216.483 57.9167 216.483C50.8964 216.483 47.4194 222.477 47.4194 230.16C47.4194 237.942 50.9958 244.101 57.9167 244.101Z" fill="black"/>
<path d="M601.996 249.433C591.929 249.433 585.141 241.784 585.141 230.359C585.141 218.769 591.929 211.152 601.996 211.152C612.096 211.152 618.918 218.769 618.918 230.359C618.918 241.784 612.096 249.433 601.996 249.433ZM601.996 244.102C609.48 244.102 612.891 237.644 612.891 230.359C612.891 223.007 609.48 216.484 601.996 216.484C594.611 216.484 591.201 222.974 591.201 230.359C591.201 237.644 594.611 244.102 601.996 244.102Z" fill="black"/>
<path d="M644.78 249.433C637.727 249.433 635.243 244.962 634.018 242.909H633.356V248.638H627.594V199.297H633.554V217.543H634.018C635.243 215.589 637.528 211.152 644.747 211.152C653.986 211.152 660.444 218.503 660.444 230.226C660.444 242.015 654.019 249.433 644.78 249.433ZM643.886 244.101C650.807 244.101 654.384 237.942 654.384 230.16C654.384 222.477 650.907 216.483 643.886 216.483C637.065 216.483 633.488 221.98 633.488 230.16C633.488 238.405 637.164 244.101 643.886 244.101Z" fill="black"/>
<path d="M669.083 211.615H675.077V251.287C675.11 258.737 671.004 262.877 663.023 262.479V256.982C667.196 257.28 669.117 255.393 669.083 251.287V211.615ZM672.097 205.555C669.845 205.555 667.958 203.8 667.958 201.614C667.958 199.429 669.845 197.674 672.097 197.674C674.382 197.674 676.269 199.429 676.269 201.614C676.269 203.8 674.382 205.555 672.097 205.555Z" fill="black"/>
<path d="M701.11 249.433C690.381 249.433 683.758 241.817 683.758 230.425C683.758 219.067 690.315 211.152 700.415 211.152C708.263 211.152 716.541 215.987 716.541 229.663V232.147H689.785C690.083 239.896 694.586 244.135 701.143 244.135C705.514 244.135 708.793 242.214 710.183 238.439L715.945 240.028C714.223 245.625 708.693 249.433 701.11 249.433ZM689.818 227.114H710.481C709.918 220.822 706.508 216.451 700.415 216.451C694.056 216.451 690.182 221.451 689.818 227.114Z" fill="black"/>
<path d="M740.152 249.433C730.085 249.433 723.297 241.784 723.297 230.359C723.297 218.769 730.085 211.152 740.152 211.152C747.305 211.152 753.133 214.927 755.153 221.385L749.424 223.007C748.332 219.199 745.02 216.484 740.152 216.484C732.768 216.484 729.357 222.974 729.357 230.359C729.357 237.644 732.768 244.102 740.152 244.102C745.119 244.102 748.497 241.287 749.59 237.28L755.286 238.903C753.299 245.492 747.404 249.433 740.152 249.433Z" fill="black"/>
<path d="M778.398 211.615V216.715H770.782V239.034C770.782 242.346 772.007 243.803 775.153 243.803C775.915 243.803 777.206 243.604 778.199 243.405L779.425 248.439C778.199 248.869 776.511 249.101 774.987 249.101C768.596 249.101 764.821 245.558 764.821 239.498V216.715H759.258V211.615H764.821V202.807H770.782V211.615H778.398Z" fill="black"/>
<path d="M793.034 199.297V248.638H786.742V199.297H793.034Z" fill="black"/>
<path d="M818.101 249.433C808.862 249.433 802.438 242.015 802.438 230.226C802.438 218.503 808.895 211.152 818.134 211.152C825.353 211.152 827.638 215.589 828.863 217.543H829.327V199.297H835.287V248.638H829.525V242.909H828.863C827.638 244.962 825.154 249.433 818.101 249.433ZM818.995 244.101C825.717 244.101 829.393 238.405 829.393 230.16C829.393 221.98 825.816 216.483 818.995 216.483C811.975 216.483 808.497 222.477 808.497 230.16C808.497 237.942 812.074 244.101 818.995 244.101Z" fill="black"/>
<path d="M32.6794 347.99V370.177H26.7188V333.155H32.4476L32.4807 340.01C34.865 334.778 38.8387 332.691 43.8059 332.691C51.2899 332.691 56.3233 337.294 56.3233 346.666V370.177H50.3627V347.163C50.3627 341.467 47.1836 338.056 42.0177 338.056C36.6863 338.056 32.6794 341.666 32.6794 347.99Z" fill="black"/>
<path d="M77.1558 371.038C70.1354 371.038 64.5391 366.932 64.5391 359.647C64.5391 351.169 72.0892 349.613 78.944 348.752C85.6331 347.858 88.4479 348.222 88.4479 345.176C88.4479 340.573 85.8318 337.924 80.699 337.924C75.3676 337.924 72.4866 340.771 71.3276 343.354L65.5987 341.467C68.4466 334.745 74.8046 332.691 80.5335 332.691C85.5007 332.691 94.4085 334.215 94.4085 345.772V370.177H88.5472V365.144H88.1499C86.8915 367.76 83.4145 371.038 77.1558 371.038ZM78.1823 365.773C84.7722 365.773 88.4479 361.336 88.4479 356.799V351.666C87.4544 352.825 80.964 353.487 78.679 353.786C74.341 354.348 70.5328 355.739 70.5328 359.945C70.5328 363.786 73.745 365.773 78.1823 365.773Z" fill="black"/>
<path d="M104.867 370.177V333.154H110.662L110.695 339.943C112.517 334.943 116.689 332.492 121.06 332.492C125.928 332.492 129.173 335.473 130.498 340.042C132.253 335.373 136.79 332.492 142.154 332.492C148.579 332.492 153.811 336.632 153.811 345.208V370.177H147.817V345.374C147.817 340.042 144.34 337.923 140.366 337.923C135.366 337.923 132.319 341.334 132.319 346.003V370.177H126.359V344.778C126.359 340.672 123.279 337.923 119.107 337.923C114.768 337.923 110.828 340.97 110.828 346.864V370.177H104.867Z" fill="black"/>
<path d="M179.844 370.972C169.115 370.972 162.492 363.356 162.492 351.964C162.492 340.606 169.049 332.691 179.149 332.691C186.997 332.691 195.276 337.526 195.276 351.203V353.686H168.519C168.817 361.435 173.321 365.674 179.877 365.674C184.249 365.674 187.527 363.753 188.918 359.978L194.68 361.567C192.958 367.164 187.428 370.972 179.844 370.972ZM168.552 348.653H189.216C188.653 342.361 185.242 337.99 179.149 337.99C172.791 337.99 168.916 342.99 168.552 348.653Z" fill="black"/>
<path d="M599.513 370.974C591.896 370.974 586.598 367.596 585.273 361.205L590.936 359.847C591.996 363.921 595.009 365.742 599.447 365.742C604.612 365.742 607.924 363.192 607.924 360.145C607.924 357.596 606.136 355.907 602.493 355.046L596.334 353.589C589.611 351.999 586.399 348.688 586.399 343.489C586.399 337.131 592.228 332.693 600.109 332.693C607.725 332.693 611.732 336.402 613.421 341.601L608.023 342.992C606.997 340.343 604.91 337.76 600.142 337.76C595.738 337.76 592.426 340.045 592.426 343.125C592.426 345.873 594.314 347.396 598.652 348.423L604.248 349.747C610.97 351.337 614.116 354.682 614.116 359.748C614.116 366.239 608.189 370.974 599.513 370.974Z" fill="black"/>
<path d="M637.297 333.156V338.256H629.68V360.575C629.68 363.887 630.905 365.344 634.051 365.344C634.813 365.344 636.104 365.145 637.098 364.946L638.323 369.98C637.098 370.41 635.409 370.642 633.886 370.642C627.495 370.642 623.72 367.099 623.72 361.039V338.256H618.156V333.156H623.72V324.348H629.68V333.156H637.297Z" fill="black"/>
<path d="M644.914 370.179V333.157H650.676V338.853H651.073C652.431 335.111 656.272 332.627 660.677 332.627C661.538 332.627 662.995 332.693 663.69 332.726V338.72C663.326 338.654 661.703 338.389 660.114 338.389C654.782 338.389 650.875 341.998 650.875 346.999V370.179H644.914Z" fill="black"/>
<path d="M671.501 370.178V333.156H677.462V370.178H671.501ZM674.514 327.096C672.263 327.096 670.375 325.341 670.375 323.156C670.375 320.97 672.263 319.215 674.514 319.215C676.799 319.215 678.687 320.97 678.687 323.156C678.687 325.341 676.799 327.096 674.514 327.096Z" fill="black"/>
<path d="M693.89 347.992V370.179H687.93V333.157H693.659L693.692 340.012C696.076 334.78 700.05 332.693 705.017 332.693C712.501 332.693 717.534 337.296 717.534 346.668V370.179H711.574V347.165C711.574 341.469 708.395 338.058 703.229 338.058C697.897 338.058 693.89 341.667 693.89 347.992Z" fill="black"/>
<path d="M743 384.816C734.788 384.816 730.052 381.339 727.767 377.266L732.602 374.153C734.158 376.306 736.477 379.617 743 379.617C748.895 379.617 753.166 376.902 753.166 370.808V363.391H752.603C751.345 365.51 748.994 369.583 741.841 369.583C732.966 369.583 726.211 363.126 726.211 351.503C726.211 340.045 732.735 332.693 741.974 332.693C749.126 332.693 751.511 337.098 752.769 339.085H753.332V333.157H759.127V371.14C759.127 380.71 752.007 384.816 743 384.816ZM742.835 364.285C749.557 364.285 753.233 359.45 753.233 351.37C753.233 343.522 749.656 338.025 742.835 338.025C735.781 338.025 732.271 343.985 732.271 351.37C732.271 358.986 735.88 364.285 742.835 364.285Z" fill="black"/>
<path d="M32.6794 442.377V491.718H26.7188V442.377H32.6794Z" fill="black"/>
<path d="M53.5073 492.579C46.487 492.579 40.8906 488.473 40.8906 481.188C40.8906 472.71 48.4408 471.154 55.2955 470.293C61.9847 469.399 64.7995 469.763 64.7995 466.717C64.7995 462.114 62.1834 459.465 57.0506 459.465C51.7191 459.465 48.8382 462.312 47.6791 464.895L41.9503 463.008C44.7982 456.286 51.1562 454.232 56.885 454.232C61.8522 454.232 70.7601 455.756 70.7601 467.313V491.718H64.8988V486.685H64.5014C63.2431 489.301 59.766 492.579 53.5073 492.579ZM54.5339 487.314C61.1237 487.314 64.7995 482.877 64.7995 478.34V473.207C63.806 474.366 57.3155 475.028 55.0306 475.327C50.6926 475.889 46.8844 477.28 46.8844 481.486C46.8844 485.327 50.0965 487.314 54.5339 487.314Z" fill="black"/>
<path d="M95.7966 454.695V459.795H88.1802V482.114C88.1802 485.426 89.4054 486.883 92.5513 486.883C93.313 486.883 94.6044 486.684 95.5979 486.485L96.8231 491.519C95.5979 491.949 93.909 492.181 92.3857 492.181C85.9946 492.181 82.2195 488.638 82.2195 482.578V459.795H76.6562V454.695H82.2195V445.887H88.1802V454.695H95.7966Z" fill="black"/>
<path d="M103.415 491.718V454.695H109.376V491.718H103.415ZM106.428 448.635C104.177 448.635 102.289 446.88 102.289 444.695C102.289 442.509 104.177 440.754 106.428 440.754C108.713 440.754 110.601 442.509 110.601 444.695C110.601 446.88 108.713 448.635 106.428 448.635Z" fill="black"/>
<path d="M134.406 454.695V459.795H126.79V482.114C126.79 485.426 128.015 486.883 131.161 486.883C131.922 486.883 133.214 486.684 134.207 486.485L135.432 491.519C134.207 491.949 132.518 492.181 130.995 492.181C124.604 492.181 120.829 488.638 120.829 482.578V459.795H115.266V454.695H120.829V445.887H126.79V454.695H134.406Z" fill="black"/>
<path d="M154.574 492.181C147.09 492.181 142.023 487.578 142.023 478.207V454.695H147.984V477.71C147.984 483.406 151.196 486.817 156.362 486.817C161.66 486.817 165.667 483.207 165.667 476.882V454.695H171.661V491.718H165.899V484.797C163.482 490.194 159.442 492.181 154.574 492.181Z" fill="black"/>
<path d="M195.999 492.513C186.76 492.513 180.336 485.095 180.336 473.306C180.336 461.584 186.793 454.232 196.032 454.232C203.251 454.232 205.536 458.669 206.761 460.623H207.225V442.377H213.186V491.718H207.424V485.989H206.761C205.536 488.042 203.053 492.513 195.999 492.513ZM196.893 487.181C203.616 487.181 207.291 481.485 207.291 473.24C207.291 465.061 203.715 459.564 196.893 459.564C189.873 459.564 186.396 465.557 186.396 473.24C186.396 481.022 189.972 487.181 196.893 487.181Z" fill="black"/>
<path d="M239.219 492.513C228.49 492.513 221.867 484.897 221.867 473.505C221.867 462.147 228.424 454.232 238.524 454.232C246.372 454.232 254.651 459.067 254.651 472.744V475.227H227.894C228.192 482.976 232.696 487.215 239.252 487.215C243.624 487.215 246.902 485.294 248.293 481.519L254.055 483.108C252.333 488.705 246.803 492.513 239.219 492.513ZM227.927 470.194H248.591C248.028 463.902 244.617 459.531 238.524 459.531C232.166 459.531 228.291 464.531 227.927 470.194Z" fill="black"/>
<path d="M599.513 492.513C591.896 492.513 586.598 489.135 585.273 482.744L590.936 481.387C591.996 485.46 595.009 487.281 599.447 487.281C604.612 487.281 607.924 484.731 607.924 481.685C607.924 479.135 606.136 477.446 602.493 476.585L596.334 475.128C589.611 473.538 586.399 470.227 586.399 465.028C586.399 458.67 592.228 454.232 600.109 454.232C607.725 454.232 611.732 457.941 613.421 463.14L608.023 464.531C606.997 461.882 604.91 459.299 600.142 459.299C595.738 459.299 592.426 461.584 592.426 464.664C592.426 467.412 594.314 468.935 598.652 469.962L604.248 471.287C610.97 472.876 614.116 476.221 614.116 481.287C614.116 487.778 608.189 492.513 599.513 492.513Z" fill="black"/>
<path d="M637.297 454.695V459.795H629.68V482.114C629.68 485.426 630.905 486.883 634.051 486.883C634.813 486.883 636.104 486.684 637.098 486.485L638.323 491.519C637.098 491.949 635.409 492.181 633.886 492.181C627.495 492.181 623.72 488.638 623.72 482.578V459.795H618.156V454.695H623.72V445.887H629.68V454.695H637.297Z" fill="black"/>
<path d="M644.914 491.718V454.696H650.676V460.392H651.073C652.431 456.65 656.272 454.166 660.677 454.166C661.538 454.166 662.995 454.232 663.69 454.265V460.259C663.326 460.193 661.703 459.928 660.114 459.928C654.782 459.928 650.875 463.537 650.875 468.538V491.718H644.914Z" fill="black"/>
<path d="M671.501 491.718V454.695H677.462V491.718H671.501ZM674.514 448.635C672.263 448.635 670.375 446.88 670.375 444.695C670.375 442.509 672.263 440.754 674.514 440.754C676.799 440.754 678.687 442.509 678.687 444.695C678.687 446.88 676.799 448.635 674.514 448.635Z" fill="black"/>
<path d="M693.89 469.531V491.718H687.93V454.696H693.659L693.692 461.551C696.076 456.319 700.05 454.232 705.017 454.232C712.501 454.232 717.534 458.835 717.534 468.207V491.718H711.574V468.704C711.574 463.008 708.395 459.597 703.229 459.597C697.897 459.597 693.89 463.207 693.89 469.531Z" fill="black"/>
<path d="M743 506.355C734.788 506.355 730.052 502.878 727.767 498.805L732.602 495.692C734.158 497.845 736.477 501.156 743 501.156C748.895 501.156 753.166 498.441 753.166 492.348V484.93H752.603C751.345 487.049 748.994 491.122 741.841 491.122C732.966 491.122 726.211 484.665 726.211 473.042C726.211 461.584 732.735 454.232 741.974 454.232C749.126 454.232 751.511 458.637 752.769 460.624H753.332V454.696H759.127V492.679C759.127 502.249 752.007 506.355 743 506.355ZM742.835 485.824C749.557 485.824 753.233 480.989 753.233 472.909C753.233 465.061 749.656 459.564 742.835 459.564C735.781 459.564 732.271 465.525 732.271 472.909C732.271 480.526 735.88 485.824 742.835 485.824Z" fill="black"/>
<path d="M32.6794 563.916V613.257H26.7188V563.916H32.6794Z" fill="black"/>
<path d="M58.207 614.052C48.1401 614.052 41.3516 606.403 41.3516 594.978C41.3516 583.388 48.1401 575.771 58.207 575.771C68.3069 575.771 75.1286 583.388 75.1286 594.978C75.1286 606.403 68.3069 614.052 58.207 614.052ZM58.207 608.721C65.6909 608.721 69.1017 602.263 69.1017 594.978C69.1017 587.627 65.6909 581.103 58.207 581.103C50.8224 581.103 47.4116 587.593 47.4116 594.978C47.4116 602.263 50.8224 608.721 58.207 608.721Z" fill="black"/>
<path d="M89.7653 591.071V613.257H83.8047V576.235H89.5335L89.5666 583.09C91.9509 577.858 95.9247 575.771 100.892 575.771C108.376 575.771 113.409 580.374 113.409 589.746V613.257H107.449V590.243C107.449 584.547 104.27 581.136 99.1037 581.136C93.7722 581.136 89.7653 584.746 89.7653 591.071Z" fill="black"/>
<path d="M138.875 627.894C130.663 627.894 125.927 624.417 123.642 620.344L128.477 617.231C130.033 619.384 132.352 622.695 138.875 622.695C144.77 622.695 149.041 619.98 149.041 613.887V606.469H148.478C147.22 608.588 144.869 612.661 137.716 612.661C128.841 612.661 122.086 606.204 122.086 594.581C122.086 583.123 128.61 575.771 137.849 575.771C145.001 575.771 147.386 580.176 148.644 582.163H149.207V576.235H155.002V614.218C155.002 623.788 147.882 627.894 138.875 627.894ZM138.71 607.363C145.432 607.363 149.108 602.528 149.108 594.448C149.108 586.6 145.531 581.103 138.71 581.103C131.656 581.103 128.146 587.064 128.146 594.448C128.146 602.065 131.755 607.363 138.71 607.363Z" fill="black"/>
<path d="M165.47 613.257V576.234H171.43V613.257H165.47ZM168.483 570.174C166.231 570.174 164.344 568.419 164.344 566.234C164.344 564.048 166.231 562.293 168.483 562.293C170.768 562.293 172.656 564.048 172.656 566.234C172.656 568.419 170.768 570.174 168.483 570.174Z" fill="black"/>
<path d="M196.468 576.234V581.334H188.852V603.653C188.852 606.965 190.077 608.422 193.223 608.422C193.985 608.422 195.276 608.223 196.27 608.024L197.495 613.058C196.27 613.488 194.581 613.72 193.058 613.72C186.666 613.72 182.891 610.177 182.891 604.117V581.334H177.328V576.234H182.891V567.426H188.852V576.234H196.468Z" fill="black"/>
<path d="M216.629 613.72C209.145 613.72 204.078 609.117 204.078 599.746V576.234H210.039V599.249C210.039 604.945 213.251 608.356 218.417 608.356C223.715 608.356 227.722 604.746 227.722 598.421V576.234H233.716V613.257H227.954V606.336C225.536 611.733 221.496 613.72 216.629 613.72Z" fill="black"/>
<path d="M258.062 614.052C248.823 614.052 242.398 606.634 242.398 594.845C242.398 583.123 248.856 575.771 258.095 575.771C265.314 575.771 267.599 580.208 268.824 582.162H269.288V563.916H275.248V613.257H269.486V607.528H268.824C267.599 609.581 265.115 614.052 258.062 614.052ZM258.956 608.72C265.678 608.72 269.354 603.025 269.354 594.779C269.354 586.6 265.777 581.103 258.956 581.103C251.935 581.103 248.458 587.096 248.458 594.779C248.458 602.561 252.035 608.72 258.956 608.72Z" fill="black"/>
<path d="M301.274 614.052C290.545 614.052 283.922 606.436 283.922 595.044C283.922 583.686 290.479 575.771 300.579 575.771C308.427 575.771 316.705 580.606 316.705 594.283V596.766H289.949C290.247 604.515 294.75 608.754 301.307 608.754C305.678 608.754 308.957 606.833 310.347 603.058L316.109 604.648C314.387 610.244 308.857 614.052 301.274 614.052ZM289.982 591.733H310.645C310.083 585.441 306.672 581.07 300.579 581.07C294.221 581.07 290.346 586.07 289.982 591.733Z" fill="black"/>
<path d="M599.513 614.052C591.896 614.052 586.598 610.674 585.273 604.283L590.936 602.926C591.996 606.999 595.009 608.82 599.447 608.82C604.612 608.82 607.924 606.27 607.924 603.224C607.924 600.674 606.136 598.985 602.493 598.124L596.334 596.667C589.611 595.077 586.399 591.766 586.399 586.567C586.399 580.209 592.228 575.771 600.109 575.771C607.725 575.771 611.732 579.48 613.421 584.679L608.023 586.07C606.997 583.421 604.91 580.838 600.142 580.838C595.738 580.838 592.426 583.123 592.426 586.203C592.426 588.951 594.314 590.474 598.652 591.501L604.248 592.826C610.97 594.415 614.116 597.76 614.116 602.826C614.116 609.317 608.189 614.052 599.513 614.052Z" fill="black"/>
<path d="M637.297 576.234V581.334H629.68V603.653C629.68 606.965 630.905 608.422 634.051 608.422C634.813 608.422 636.104 608.223 637.098 608.024L638.323 613.058C637.098 613.488 635.409 613.72 633.886 613.72C627.495 613.72 623.72 610.177 623.72 604.117V581.334H618.156V576.234H623.72V567.426H629.68V576.234H637.297Z" fill="black"/>
<path d="M644.914 613.257V576.235H650.676V581.931H651.073C652.431 578.189 656.272 575.705 660.677 575.705C661.538 575.705 662.995 575.771 663.69 575.804V581.798C663.326 581.732 661.703 581.467 660.114 581.467C654.782 581.467 650.875 585.077 650.875 590.077V613.257H644.914Z" fill="black"/>
<path d="M671.501 613.257V576.234H677.462V613.257H671.501ZM674.514 570.174C672.263 570.174 670.375 568.419 670.375 566.234C670.375 564.048 672.263 562.293 674.514 562.293C676.799 562.293 678.687 564.048 678.687 566.234C678.687 568.419 676.799 570.174 674.514 570.174Z" fill="black"/>
<path d="M693.89 591.071V613.257H687.93V576.235H693.659L693.692 583.09C696.076 577.858 700.05 575.771 705.017 575.771C712.501 575.771 717.534 580.374 717.534 589.746V613.257H711.574V590.243C711.574 584.547 708.395 581.136 703.229 581.136C697.897 581.136 693.89 584.746 693.89 591.071Z" fill="black"/>
<path d="M743 627.894C734.788 627.894 730.052 624.417 727.767 620.344L732.602 617.231C734.158 619.384 736.477 622.695 743 622.695C748.895 622.695 753.166 619.98 753.166 613.887V606.469H752.603C751.345 608.588 748.994 612.661 741.841 612.661C732.966 612.661 726.211 606.204 726.211 594.581C726.211 583.123 732.735 575.771 741.974 575.771C749.126 575.771 751.511 580.176 752.769 582.163H753.332V576.235H759.127V614.218C759.127 623.788 752.007 627.894 743 627.894ZM742.835 607.363C749.557 607.363 753.233 602.528 753.233 594.448C753.233 586.6 749.656 581.103 742.835 581.103C735.781 581.103 732.271 587.064 732.271 594.448C732.271 602.065 735.88 607.363 742.835 607.363Z" fill="black"/>
<path d="M41.7851 735.591C31.7182 735.591 24.9297 727.942 24.9297 716.517C24.9297 704.927 31.7182 697.311 41.7851 697.311C48.9379 697.311 54.766 701.086 56.786 707.543L51.0572 709.166C49.9644 705.357 46.6529 702.642 41.7851 702.642C34.4005 702.642 30.9897 709.133 30.9897 716.517C30.9897 723.802 34.4005 730.26 41.7851 730.26C46.7523 730.26 50.13 727.445 51.2228 723.438L56.9185 725.061C54.9316 731.651 49.0372 735.591 41.7851 735.591Z" fill="black"/>
<path d="M65.4609 734.796V697.774H71.2229V703.47H71.6203C72.978 699.728 76.8193 697.244 81.2235 697.244C82.0845 697.244 83.5416 697.31 84.237 697.343V703.337C83.8727 703.271 82.2501 703.006 80.6606 703.006C75.3291 703.006 71.4216 706.616 71.4216 711.616V734.796H65.4609Z" fill="black"/>
<path d="M105.43 735.591C94.7011 735.591 88.0781 727.975 88.0781 716.583C88.0781 705.225 94.6348 697.311 104.735 697.311C112.583 697.311 120.862 702.145 120.862 715.822V718.305H94.105C94.403 726.054 98.9066 730.293 105.463 730.293C109.834 730.293 113.113 728.372 114.504 724.597L120.266 726.187C118.544 731.783 113.014 735.591 105.43 735.591ZM94.1381 713.272H114.802C114.239 706.98 110.828 702.609 104.735 702.609C98.3768 702.609 94.5024 707.609 94.1381 713.272Z" fill="black"/>
<path d="M140.437 735.657C133.417 735.657 127.82 731.551 127.82 724.266C127.82 715.789 135.37 714.232 142.225 713.371C148.914 712.477 151.729 712.841 151.729 709.795C151.729 705.192 149.113 702.543 143.98 702.543C138.649 702.543 135.768 705.391 134.609 707.974L128.88 706.086C131.728 699.364 138.086 697.311 143.815 697.311C148.782 697.311 157.69 698.834 157.69 710.391V734.796H151.828V729.763H151.431C150.173 732.379 146.696 735.657 140.437 735.657ZM141.464 730.392C148.053 730.392 151.729 725.955 151.729 721.418V716.285C150.736 717.444 144.245 718.107 141.96 718.405C137.622 718.968 133.814 720.358 133.814 724.564C133.814 728.405 137.026 730.392 141.464 730.392Z" fill="black"/>
<path d="M182.718 697.773V702.873H175.102V725.192C175.102 728.504 176.327 729.961 179.473 729.961C180.235 729.961 181.526 729.762 182.52 729.564L183.745 734.597C182.52 735.027 180.831 735.259 179.308 735.259C172.916 735.259 169.141 731.716 169.141 725.656V702.873H163.578V697.773H169.141V688.965H175.102V697.773H182.718Z" fill="black"/>
<path d="M205.243 735.591C194.514 735.591 187.891 727.975 187.891 716.583C187.891 705.225 194.447 697.311 204.547 697.311C212.396 697.311 220.674 702.145 220.674 715.822V718.305H193.918C194.216 726.054 198.719 730.293 205.276 730.293C209.647 730.293 212.925 728.372 214.316 724.597L220.078 726.187C218.356 731.783 212.826 735.591 205.243 735.591ZM193.951 713.272H214.614C214.051 706.98 210.64 702.609 204.547 702.609C198.189 702.609 194.315 707.609 193.951 713.272Z" fill="black"/>
<path d="M243.093 735.591C233.854 735.591 227.43 728.173 227.43 716.384C227.43 704.662 233.887 697.31 243.126 697.31C250.345 697.31 252.63 701.748 253.855 703.701H254.319V685.455H260.279V734.796H254.518V729.067H253.855C252.63 731.12 250.146 735.591 243.093 735.591ZM243.987 730.259C250.709 730.259 254.385 724.564 254.385 716.318C254.385 708.139 250.809 702.642 243.987 702.642C236.967 702.642 233.49 708.635 233.49 716.318C233.49 724.1 237.066 730.259 243.987 730.259Z" fill="black"/>
<path d="M296.437 734.797V740.294H265.508V734.797H296.437Z" fill="black"/>
<path d="M312.031 735.657C305.01 735.657 299.414 731.551 299.414 724.266C299.414 715.789 306.964 714.232 313.819 713.371C320.508 712.477 323.323 712.841 323.323 709.795C323.323 705.192 320.707 702.543 315.574 702.543C310.243 702.543 307.362 705.391 306.203 707.974L300.474 706.086C303.322 699.364 309.68 697.311 315.408 697.311C320.376 697.311 329.284 698.834 329.284 710.391V734.796H323.422V729.763H323.025C321.766 732.379 318.289 735.657 312.031 735.657ZM313.057 730.392C319.647 730.392 323.323 725.955 323.323 721.418V716.285C322.329 717.444 315.839 718.107 313.554 718.405C309.216 718.968 305.408 720.358 305.408 724.564C305.408 728.405 308.62 730.392 313.057 730.392Z" fill="black"/>
<path d="M354.32 697.773V702.873H346.704V725.192C346.704 728.504 347.929 729.961 351.075 729.961C351.836 729.961 353.128 729.762 354.121 729.564L355.347 734.597C354.121 735.027 352.432 735.259 350.909 735.259C344.518 735.259 340.743 731.716 340.743 725.656V702.873H335.18V697.773H340.743V688.965H346.704V697.773H354.32Z" fill="black"/>
<path d="M600.804 735.591C591.565 735.591 585.141 728.173 585.141 716.384C585.141 704.662 591.598 697.31 600.837 697.31C608.056 697.31 610.341 701.748 611.566 703.701H612.03V685.455H617.99V734.796H612.228V729.067H611.566C610.341 731.12 607.857 735.591 600.804 735.591ZM601.698 730.259C608.42 730.259 612.096 724.564 612.096 716.318C612.096 708.139 608.52 702.642 601.698 702.642C594.678 702.642 591.201 708.635 591.201 716.318C591.201 724.1 594.777 730.259 601.698 730.259Z" fill="black"/>
<path d="M638.82 735.657C631.8 735.657 626.203 731.551 626.203 724.266C626.203 715.789 633.753 714.232 640.608 713.371C647.297 712.477 650.112 712.841 650.112 709.795C650.112 705.192 647.496 702.543 642.363 702.543C637.032 702.543 634.151 705.391 632.992 707.974L627.263 706.086C630.111 699.364 636.469 697.311 642.198 697.311C647.165 697.311 656.073 698.834 656.073 710.391V734.796H650.211V729.763H649.814C648.556 732.379 645.079 735.657 638.82 735.657ZM639.846 730.392C646.436 730.392 650.112 725.955 650.112 721.418V716.285C649.119 717.444 642.628 718.107 640.343 718.405C636.005 718.968 632.197 720.358 632.197 724.564C632.197 728.405 635.409 730.392 639.846 730.392Z" fill="black"/>
<path d="M681.109 697.773V702.873H673.493V725.192C673.493 728.504 674.718 729.961 677.864 729.961C678.625 729.961 679.917 729.762 680.91 729.564L682.136 734.597C680.91 735.027 679.222 735.259 677.698 735.259C671.307 735.259 667.532 731.716 667.532 725.656V702.873H661.969V697.773H667.532V688.965H673.493V697.773H681.109Z" fill="black"/>
<path d="M703.626 735.591C692.896 735.591 686.273 727.975 686.273 716.583C686.273 705.225 692.83 697.311 702.93 697.311C710.778 697.311 719.057 702.145 719.057 715.822V718.305H692.3C692.598 726.054 697.102 730.293 703.659 730.293C708.03 730.293 711.308 728.372 712.699 724.597L718.461 726.187C716.739 731.783 711.209 735.591 703.626 735.591ZM692.333 713.272H712.997C712.434 706.98 709.023 702.609 702.93 702.609C696.572 702.609 692.698 707.609 692.333 713.272Z" fill="black"/>
<path d="M39.2692 856.798C31.7853 856.798 26.7188 852.195 26.7188 842.824V819.312H32.6794V842.327C32.6794 848.023 35.8915 851.434 41.0574 851.434C46.3558 851.434 50.3627 847.824 50.3627 841.499V819.312H56.3564V856.335H50.5945V849.414C48.1771 854.812 44.1371 856.798 39.2692 856.798Z" fill="black"/>
<path d="M66.8203 870.178V819.313H72.5823V825.241H73.2446C74.4698 823.287 76.7547 818.85 83.9737 818.85C93.2127 818.85 99.6701 826.201 99.6701 837.924C99.6701 849.713 93.2459 857.13 84.0069 857.13C76.9534 857.13 74.4698 852.66 73.2446 850.607H72.781V870.178H66.8203ZM83.1128 851.799C90.0337 851.799 93.6101 845.639 93.6101 837.857C93.6101 830.175 90.1331 824.181 83.1128 824.181C76.2911 824.181 72.7147 829.678 72.7147 837.857C72.7147 846.103 76.3905 851.799 83.1128 851.799Z" fill="black"/>
<path d="M122.218 857.13C112.979 857.13 106.555 849.712 106.555 837.923C106.555 826.201 113.012 818.849 122.251 818.849C129.47 818.849 131.755 823.287 132.98 825.24H133.444V806.994H139.404V856.335H133.643V850.606H132.98C131.755 852.659 129.271 857.13 122.218 857.13ZM123.112 851.798C129.834 851.798 133.51 846.103 133.51 837.857C133.51 829.678 129.934 824.181 123.112 824.181C116.092 824.181 112.615 830.174 112.615 837.857C112.615 845.639 116.191 851.798 123.112 851.798Z" fill="black"/>
<path d="M160.234 857.197C153.214 857.197 147.617 853.09 147.617 845.805C147.617 837.328 155.167 835.771 162.022 834.91C168.711 834.016 171.526 834.38 171.526 831.334C171.526 826.731 168.91 824.082 163.777 824.082C158.446 824.082 155.565 826.93 154.406 829.513L148.677 827.625C151.525 820.903 157.883 818.85 163.612 818.85C168.579 818.85 177.487 820.373 177.487 831.93V856.336H171.625V851.302H171.228C169.97 853.918 166.493 857.197 160.234 857.197ZM161.26 851.931C167.85 851.931 171.526 847.494 171.526 842.957V837.824C170.533 838.983 164.042 839.646 161.757 839.944C157.419 840.507 153.611 841.897 153.611 846.103C153.611 849.944 156.823 851.931 161.26 851.931Z" fill="black"/>
<path d="M202.523 819.312V824.412H194.907V846.731C194.907 850.043 196.132 851.5 199.278 851.5C200.04 851.5 201.331 851.301 202.324 851.103L203.55 856.136C202.324 856.567 200.636 856.798 199.112 856.798C192.721 856.798 188.946 853.255 188.946 847.195V824.412H183.383V819.312H188.946V810.504H194.907V819.312H202.523Z" fill="black"/>
<path d="M225.04 857.13C214.31 857.13 207.688 849.514 207.688 838.122C207.688 826.764 214.244 818.85 224.344 818.85C232.192 818.85 240.471 823.684 240.471 837.361V839.844H213.714C214.012 847.593 218.516 851.832 225.073 851.832C229.444 851.832 232.722 849.911 234.113 846.136L239.875 847.726C238.153 853.322 232.623 857.13 225.04 857.13ZM213.747 834.811H234.411C233.848 828.519 230.437 824.148 224.344 824.148C217.986 824.148 214.112 829.148 213.747 834.811Z" fill="black"/>
<path d="M262.89 857.13C253.651 857.13 247.227 849.712 247.227 837.923C247.227 826.201 253.684 818.849 262.923 818.849C270.142 818.849 272.427 823.287 273.652 825.24H274.116V806.994H280.076V856.335H274.314V850.606H273.652C272.427 852.659 269.943 857.13 262.89 857.13ZM263.784 851.798C270.506 851.798 274.182 846.103 274.182 837.857C274.182 829.678 270.606 824.181 263.784 824.181C256.764 824.181 253.287 830.174 253.287 837.857C253.287 845.639 256.863 851.798 263.784 851.798Z" fill="black"/>
<path d="M316.242 856.336V861.833H285.312V856.336H316.242Z" fill="black"/>
<path d="M331.835 857.197C324.815 857.197 319.219 853.09 319.219 845.805C319.219 837.328 326.769 835.771 333.624 834.91C340.313 834.016 343.128 834.38 343.128 831.334C343.128 826.731 340.512 824.082 335.379 824.082C330.047 824.082 327.166 826.93 326.007 829.513L320.278 827.625C323.126 820.903 329.484 818.85 335.213 818.85C340.18 818.85 349.088 820.373 349.088 831.93V856.336H343.227V851.302H342.83C341.571 853.918 338.094 857.197 331.835 857.197ZM332.862 851.931C339.452 851.931 343.128 847.494 343.128 842.957V837.824C342.134 838.983 335.644 839.646 333.359 839.944C329.021 840.507 325.213 841.897 325.213 846.103C325.213 849.944 328.425 851.931 332.862 851.931Z" fill="black"/>
<path d="M374.125 819.312V824.412H366.508V846.731C366.508 850.043 367.734 851.5 370.879 851.5C371.641 851.5 372.933 851.301 373.926 851.103L375.151 856.136C373.926 856.567 372.237 856.798 370.714 856.798C364.323 856.798 360.548 853.255 360.548 847.195V824.412H354.984V819.312H360.548V810.504H366.508V819.312H374.125Z" fill="black"/>
<path d="M600.804 857.13C591.565 857.13 585.141 849.712 585.141 837.923C585.141 826.201 591.598 818.849 600.837 818.849C608.056 818.849 610.341 823.287 611.566 825.24H612.03V806.994H617.99V856.335H612.228V850.606H611.566C610.341 852.659 607.857 857.13 600.804 857.13ZM601.698 851.798C608.42 851.798 612.096 846.103 612.096 837.857C612.096 829.678 608.52 824.181 601.698 824.181C594.678 824.181 591.201 830.174 591.201 837.857C591.201 845.639 594.777 851.798 601.698 851.798Z" fill="black"/>
<path d="M638.82 857.197C631.8 857.197 626.203 853.09 626.203 845.805C626.203 837.328 633.753 835.771 640.608 834.91C647.297 834.016 650.112 834.38 650.112 831.334C650.112 826.731 647.496 824.082 642.363 824.082C637.032 824.082 634.151 826.93 632.992 829.513L627.263 827.625C630.111 820.903 636.469 818.85 642.198 818.85C647.165 818.85 656.073 820.373 656.073 831.93V856.336H650.211V851.302H649.814C648.556 853.918 645.079 857.197 638.82 857.197ZM639.846 851.931C646.436 851.931 650.112 847.494 650.112 842.957V837.824C649.119 838.983 642.628 839.646 640.343 839.944C636.005 840.507 632.197 841.897 632.197 846.103C632.197 849.944 635.409 851.931 639.846 851.931Z" fill="black"/>
<path d="M681.109 819.312V824.412H673.493V846.731C673.493 850.043 674.718 851.5 677.864 851.5C678.625 851.5 679.917 851.301 680.91 851.103L682.136 856.136C680.91 856.567 679.222 856.798 677.698 856.798C671.307 856.798 667.532 853.255 667.532 847.195V824.412H661.969V819.312H667.532V810.504H673.493V819.312H681.109Z" fill="black"/>
<path d="M703.626 857.13C692.896 857.13 686.273 849.514 686.273 838.122C686.273 826.764 692.83 818.85 702.93 818.85C710.778 818.85 719.057 823.684 719.057 837.361V839.844H692.3C692.598 847.593 697.102 851.832 703.659 851.832C708.03 851.832 711.308 849.911 712.699 846.136L718.461 847.726C716.739 853.322 711.209 857.13 703.626 857.13ZM692.333 834.811H712.997C712.434 828.519 709.023 824.148 702.93 824.148C696.572 824.148 692.698 829.148 692.333 834.811Z" fill="black"/>
</g>
<defs>
<clipPath id="clip0_227_5">
<rect width="1053" height="893" fill="white"/>
</clipPath>
</defs>
</svg>
