<svg width="2433" height="771" viewBox="0 0 2433 771" fill="none" xmlns="http://www.w3.org/2000/svg">
<g clip-path="url(#clip0_227_2957)">
<rect width="2433" height="771" fill="white"/>
<path d="M1293.56 345.033H1223.68C1210.79 345.033 1198.42 350.155 1189.3 359.272C1180.19 368.39 1175.06 380.755 1175.06 393.649V661.036C1175.06 673.93 1169.94 686.295 1160.82 695.412C1151.71 704.53 1139.34 709.652 1126.45 709.652H1056.56" stroke="#333333"/>
<path d="M1295.58 346.977H1293.56V343.088H1295.58V346.977ZM1056.56 711.555H1054.53V707.747H1056.56V711.555Z" fill="#333333" stroke="#333333" stroke-width="0.05"/>
<path d="M1297.61 142.468C1297.61 137.095 1299.74 131.943 1303.54 128.144C1307.34 124.345 1312.49 122.211 1317.87 122.211H2411.72C2417.09 122.211 2422.24 124.345 2426.04 128.144C2429.84 131.943 2431.98 137.095 2431.98 142.468V628.626C2431.98 633.998 2429.84 639.15 2426.04 642.949C2422.24 646.748 2417.09 648.882 2411.72 648.882H1317.87C1312.49 648.882 1307.34 646.748 1303.54 642.949C1299.74 639.15 1297.61 633.998 1297.61 628.626V142.468Z" fill="white"/>
<path d="M1297.61 284.264V142.468C1297.61 137.095 1299.74 131.943 1303.54 128.144C1307.34 124.345 1312.49 122.211 1317.87 122.211H2411.72C2417.09 122.211 2422.24 124.345 2426.04 128.144C2429.84 131.943 2431.98 137.095 2431.98 142.468V284.264" fill="#DEDEFF"/>
<path d="M1297.61 284.264H2431.98M1864.79 284.264V648.882M1297.61 142.468C1297.61 137.095 1299.74 131.943 1303.54 128.144C1307.34 124.345 1312.49 122.211 1317.87 122.211H2411.72C2417.09 122.211 2422.24 124.345 2426.04 128.144C2429.84 131.943 2431.98 137.095 2431.98 142.468V628.626C2431.98 633.998 2429.84 639.15 2426.04 642.949C2422.24 646.748 2417.09 648.882 2411.72 648.882H1317.87C1312.49 648.882 1307.34 646.748 1303.54 642.949C1299.74 639.15 1297.61 633.998 1297.61 628.626V142.468Z" stroke="#282C33"/>
<path d="M1351.67 227.907L1340.45 190.885H1346.77C1349.72 201.78 1352.23 209.429 1354.82 221.516C1357.3 209.826 1359.92 201.614 1362.76 190.885H1369.12C1371.94 201.647 1374.45 209.561 1376.9 221.417C1379.45 209.694 1382.1 201.614 1384.98 190.885H1391.31L1380.08 227.907H1374.16C1371.31 217.741 1368.33 208.369 1365.88 197.673C1363.39 208.436 1360.48 217.708 1357.6 227.907H1351.67Z" fill="black"/>
<path d="M1409.23 228.769C1402.21 228.769 1396.61 224.663 1396.61 217.377C1396.61 208.9 1404.16 207.344 1411.01 206.483C1417.7 205.588 1420.52 205.953 1420.52 202.906C1420.52 198.303 1417.9 195.654 1412.77 195.654C1407.44 195.654 1404.56 198.502 1403.4 201.085L1397.67 199.197C1400.52 192.475 1406.87 190.422 1412.6 190.422C1417.57 190.422 1426.48 191.945 1426.48 203.502V227.908H1420.62V222.874H1420.22C1418.96 225.49 1415.48 228.769 1409.23 228.769ZM1410.25 223.504C1416.84 223.504 1420.52 219.066 1420.52 214.529V209.397C1419.52 210.556 1413.03 211.218 1410.75 211.516C1406.41 212.079 1402.6 213.47 1402.6 217.675C1402.6 221.517 1405.82 223.504 1410.25 223.504Z" fill="black"/>
<path d="M1449.53 228.703C1441.91 228.703 1436.61 225.325 1435.29 218.934L1440.95 217.576C1442.01 221.649 1445.02 223.47 1449.46 223.47C1454.63 223.47 1457.94 220.921 1457.94 217.874C1457.94 215.324 1456.15 213.635 1452.51 212.774L1446.35 211.317C1439.63 209.728 1436.41 206.416 1436.41 201.217C1436.41 194.859 1442.24 190.422 1450.12 190.422C1457.74 190.422 1461.75 194.131 1463.44 199.33L1458.04 200.721C1457.01 198.071 1454.93 195.488 1450.16 195.488C1445.75 195.488 1442.44 197.773 1442.44 200.853C1442.44 203.602 1444.33 205.125 1448.67 206.151L1454.26 207.476C1460.99 209.065 1464.13 212.41 1464.13 217.477C1464.13 223.967 1458.2 228.703 1449.53 228.703Z" fill="black"/>
<path d="M1487.31 190.885V195.984H1479.7V218.304C1479.7 221.615 1480.92 223.072 1484.07 223.072C1484.83 223.072 1486.12 222.874 1487.11 222.675L1488.34 227.708C1487.11 228.139 1485.42 228.371 1483.9 228.371C1477.51 228.371 1473.74 224.827 1473.74 218.767V195.984H1468.17V190.885H1473.74V182.076H1479.7V190.885H1487.31Z" fill="black"/>
<path d="M1509.83 228.703C1499.1 228.703 1492.48 221.086 1492.48 209.695C1492.48 198.336 1499.03 190.422 1509.13 190.422C1516.98 190.422 1525.26 195.257 1525.26 208.933V211.417H1498.5C1498.8 219.165 1503.31 223.404 1509.86 223.404C1514.23 223.404 1517.51 221.484 1518.9 217.708L1524.66 219.298C1522.94 224.894 1517.41 228.703 1509.83 228.703ZM1498.54 206.383H1519.2C1518.64 200.091 1515.23 195.72 1509.13 195.72C1502.78 195.72 1498.9 200.721 1498.54 206.383Z" fill="black"/>
<path d="M1546.39 228.703C1538.77 228.703 1533.47 225.325 1532.15 218.934L1537.81 217.576C1538.87 221.649 1541.88 223.47 1546.32 223.47C1551.49 223.47 1554.8 220.921 1554.8 217.874C1554.8 215.324 1553.01 213.635 1549.37 212.774L1543.21 211.317C1536.49 209.728 1533.27 206.416 1533.27 201.217C1533.27 194.859 1539.1 190.422 1546.98 190.422C1554.6 190.422 1558.61 194.131 1560.3 199.33L1554.9 200.721C1553.87 198.071 1551.79 195.488 1547.02 195.488C1542.61 195.488 1539.3 197.773 1539.3 200.853C1539.3 203.602 1541.19 205.125 1545.53 206.151L1551.12 207.476C1557.85 209.065 1560.99 212.41 1560.99 217.477C1560.99 223.967 1555.06 228.703 1546.39 228.703Z" fill="black"/>
<path d="M1323.1 369.704V332.682H1329.06V369.704H1323.1ZM1326.12 326.622C1323.86 326.622 1321.98 324.866 1321.98 322.681C1321.98 320.495 1323.86 318.74 1326.12 318.74C1328.4 318.74 1330.29 320.495 1330.29 322.681C1330.29 324.866 1328.4 326.622 1326.12 326.622Z" fill="black"/>
<path d="M1353.41 370.499C1344.17 370.499 1337.74 363.081 1337.74 351.292C1337.74 339.57 1344.2 332.218 1353.44 332.218C1360.66 332.218 1362.94 336.656 1364.17 338.61H1364.63V320.363H1370.59V369.704H1364.83V363.975H1364.17C1362.94 366.029 1360.46 370.499 1353.41 370.499ZM1354.3 365.168C1361.02 365.168 1364.7 359.472 1364.7 351.226C1364.7 343.047 1361.12 337.55 1354.3 337.55C1347.28 337.55 1343.8 343.544 1343.8 351.226C1343.8 359.008 1347.38 365.168 1354.3 365.168Z" fill="black"/>
<path d="M1905.35 370.499C1895.28 370.499 1888.49 362.85 1888.49 351.425C1888.49 339.835 1895.28 332.219 1905.35 332.219C1915.45 332.219 1922.27 339.835 1922.27 351.425C1922.27 362.85 1915.45 370.499 1905.35 370.499ZM1905.35 365.168C1912.83 365.168 1916.24 358.711 1916.24 351.425C1916.24 344.074 1912.83 337.55 1905.35 337.55C1897.96 337.55 1894.55 344.041 1894.55 351.425C1894.55 358.711 1897.96 365.168 1905.35 365.168Z" fill="black"/>
<path d="M1948.13 370.499C1941.08 370.499 1938.59 366.029 1937.37 363.975H1936.71V369.704H1930.95V320.363H1936.91V338.61H1937.37C1938.59 336.656 1940.88 332.218 1948.1 332.218C1957.34 332.218 1963.8 339.57 1963.8 351.292C1963.8 363.081 1957.37 370.499 1948.13 370.499ZM1947.24 365.168C1954.16 365.168 1957.74 359.008 1957.74 351.226C1957.74 343.544 1954.26 337.55 1947.24 337.55C1940.42 337.55 1936.84 343.047 1936.84 351.226C1936.84 359.472 1940.52 365.168 1947.24 365.168Z" fill="black"/>
<path d="M1972.43 332.682H1978.43V372.353C1978.46 379.804 1974.36 383.943 1966.38 383.546V378.049C1970.55 378.347 1972.47 376.459 1972.43 372.353V332.682ZM1975.45 326.622C1973.2 326.622 1971.31 324.866 1971.31 322.681C1971.31 320.495 1973.2 318.74 1975.45 318.74C1977.73 318.74 1979.62 320.495 1979.62 322.681C1979.62 324.866 1977.73 326.622 1975.45 326.622Z" fill="black"/>
<path d="M2004.46 370.499C1993.73 370.499 1987.11 362.883 1987.11 351.492C1987.11 340.133 1993.67 332.219 2003.77 332.219C2011.61 332.219 2019.89 337.054 2019.89 350.73V353.214H1993.14C1993.43 360.962 1997.94 365.201 2004.49 365.201C2008.87 365.201 2012.14 363.28 2013.53 359.505L2019.3 361.095C2017.57 366.691 2012.04 370.499 2004.46 370.499ZM1993.17 348.18H2013.83C2013.27 341.888 2009.86 337.517 2003.77 337.517C1997.41 337.517 1993.53 342.517 1993.17 348.18Z" fill="black"/>
<path d="M2043.5 370.499C2033.44 370.499 2026.65 362.85 2026.65 351.425C2026.65 339.835 2033.44 332.219 2043.5 332.219C2050.66 332.219 2056.48 335.994 2058.5 342.451L2052.78 344.074C2051.68 340.266 2048.37 337.55 2043.5 337.55C2036.12 337.55 2032.71 344.041 2032.71 351.425C2032.71 358.711 2036.12 365.168 2043.5 365.168C2048.47 365.168 2051.85 362.353 2052.94 358.346L2058.64 359.969C2056.65 366.559 2050.76 370.499 2043.5 370.499Z" fill="black"/>
<path d="M2081.75 332.682V337.781H2074.13V360.101C2074.13 363.412 2075.36 364.869 2078.5 364.869C2079.27 364.869 2080.56 364.67 2081.55 364.472L2082.78 369.505C2081.55 369.936 2079.86 370.167 2078.34 370.167C2071.95 370.167 2068.17 366.624 2068.17 360.564V337.781H2062.61V332.682H2068.17V323.873H2074.13V332.682H2081.75Z" fill="black"/>
<path d="M2096.39 320.363V369.704H2090.09V320.363H2096.39Z" fill="black"/>
<path d="M2121.45 370.499C2112.21 370.499 2105.79 363.081 2105.79 351.292C2105.79 339.57 2112.25 332.218 2121.49 332.218C2128.7 332.218 2130.99 336.656 2132.21 338.61H2132.68V320.363H2138.64V369.704H2132.88V363.975H2132.21C2130.99 366.029 2128.51 370.499 2121.45 370.499ZM2122.35 365.168C2129.07 365.168 2132.74 359.472 2132.74 351.226C2132.74 343.047 2129.17 337.55 2122.35 337.55C2115.33 337.55 2111.85 343.544 2111.85 351.226C2111.85 359.008 2115.43 365.168 2122.35 365.168Z" fill="black"/>
<path d="M1329.06 469.057V491.244H1323.1V454.221H1328.83L1328.86 461.076C1331.25 455.844 1335.22 453.758 1340.19 453.758C1347.67 453.758 1352.71 458.361 1352.71 467.732V491.244H1346.75V468.229C1346.75 462.533 1343.57 459.122 1338.4 459.122C1333.07 459.122 1329.06 462.732 1329.06 469.057Z" fill="black"/>
<path d="M1373.54 492.105C1366.52 492.105 1360.92 487.998 1360.92 480.713C1360.92 472.236 1368.47 470.679 1375.33 469.818C1382.02 468.924 1384.83 469.289 1384.83 466.242C1384.83 461.639 1382.21 458.99 1377.08 458.99C1371.75 458.99 1368.87 461.838 1367.71 464.421L1361.98 462.533C1364.83 455.811 1371.19 453.758 1376.92 453.758C1381.88 453.758 1390.79 455.281 1390.79 466.838V491.244H1384.93V486.21H1384.53C1383.27 488.826 1379.8 492.105 1373.54 492.105ZM1374.57 486.839C1381.15 486.839 1384.83 482.402 1384.83 477.865V472.733C1383.84 473.892 1377.35 474.554 1375.06 474.852C1370.72 475.415 1366.92 476.806 1366.92 481.011C1366.92 484.853 1370.13 486.839 1374.57 486.839Z" fill="black"/>
<path d="M1401.25 491.243V454.221H1407.05L1407.08 461.009C1408.9 456.009 1413.07 453.559 1417.44 453.559C1422.31 453.559 1425.56 456.539 1426.88 461.109C1428.64 456.44 1433.17 453.559 1438.54 453.559C1444.96 453.559 1450.19 457.698 1450.19 466.275V491.243H1444.2V466.44C1444.2 461.109 1440.72 458.989 1436.75 458.989C1431.75 458.989 1428.7 462.4 1428.7 467.069V491.243H1422.74V465.844C1422.74 461.738 1419.66 458.989 1415.49 458.989C1411.15 458.989 1407.21 462.036 1407.21 467.93V491.243H1401.25Z" fill="black"/>
<path d="M1476.23 492.038C1465.5 492.038 1458.88 484.422 1458.88 473.031C1458.88 461.672 1465.43 453.758 1475.53 453.758C1483.38 453.758 1491.66 458.593 1491.66 472.269V474.753H1464.9C1465.2 482.501 1469.7 486.74 1476.26 486.74C1480.63 486.74 1483.91 484.819 1485.3 481.044L1491.06 482.634C1489.34 488.23 1483.81 492.038 1476.23 492.038ZM1464.93 469.719H1485.6C1485.04 463.427 1481.62 459.056 1475.53 459.056C1469.17 459.056 1465.3 464.057 1464.93 469.719Z" fill="black"/>
<path d="M1902.86 492.038C1895.25 492.038 1889.95 488.661 1888.62 482.27L1894.29 480.912C1895.35 484.985 1898.36 486.806 1902.8 486.806C1907.96 486.806 1911.28 484.257 1911.28 481.21C1911.28 478.66 1909.49 476.971 1905.84 476.11L1899.69 474.653C1892.96 473.064 1889.75 469.752 1889.75 464.553C1889.75 458.195 1895.58 453.758 1903.46 453.758C1911.08 453.758 1915.08 457.467 1916.77 462.666L1911.37 464.057C1910.35 461.407 1908.26 458.824 1903.49 458.824C1899.09 458.824 1895.78 461.109 1895.78 464.189C1895.78 466.937 1897.67 468.461 1902 469.487L1907.6 470.812C1914.32 472.401 1917.47 475.746 1917.47 480.813C1917.47 487.303 1911.54 492.038 1902.86 492.038Z" fill="black"/>
<path d="M1940.65 454.221V459.32H1933.03V481.64C1933.03 484.951 1934.26 486.408 1937.4 486.408C1938.16 486.408 1939.46 486.209 1940.45 486.011L1941.67 491.044C1940.45 491.475 1938.76 491.707 1937.24 491.707C1930.85 491.707 1927.07 488.163 1927.07 482.103V459.32H1921.51V454.221H1927.07V445.412H1933.03V454.221H1940.65Z" fill="black"/>
<path d="M1948.27 491.244V454.221H1954.03V459.917H1954.42C1955.78 456.175 1959.62 453.691 1964.03 453.691C1964.89 453.691 1966.35 453.758 1967.04 453.791V459.785C1966.68 459.718 1965.05 459.453 1963.47 459.453C1958.13 459.453 1954.23 463.063 1954.23 468.063V491.244H1948.27Z" fill="black"/>
<path d="M1974.85 491.243V454.221H1980.81V491.243H1974.85ZM1977.87 448.161C1975.61 448.161 1973.73 446.406 1973.73 444.22C1973.73 442.034 1975.61 440.279 1977.87 440.279C1980.15 440.279 1982.04 442.034 1982.04 444.22C1982.04 446.406 1980.15 448.161 1977.87 448.161Z" fill="black"/>
<path d="M1997.24 469.057V491.244H1991.28V454.221H1997.01L1997.04 461.076C1999.43 455.844 2003.4 453.758 2008.37 453.758C2015.85 453.758 2020.89 458.361 2020.89 467.732V491.244H2014.93V468.229C2014.93 462.533 2011.75 459.122 2006.58 459.122C2001.25 459.122 1997.24 462.732 1997.24 469.057Z" fill="black"/>
<path d="M2046.35 505.88C2038.14 505.88 2033.4 502.403 2031.12 498.33L2035.95 495.217C2037.51 497.37 2039.83 500.681 2046.35 500.681C2052.25 500.681 2056.52 497.966 2056.52 491.873V484.455H2055.95C2054.7 486.575 2052.35 490.648 2045.19 490.648C2036.32 490.648 2029.56 484.19 2029.56 472.567C2029.56 461.109 2036.09 453.758 2045.33 453.758C2052.48 453.758 2054.86 458.162 2056.12 460.149H2056.68V454.221H2062.48V492.204C2062.48 501.774 2055.36 505.88 2046.35 505.88ZM2046.19 485.349C2052.91 485.349 2056.58 480.515 2056.58 472.435C2056.58 464.586 2053.01 459.089 2046.19 459.089C2039.13 459.089 2035.62 465.05 2035.62 472.435C2035.62 480.051 2039.23 485.349 2046.19 485.349Z" fill="black"/>
<path d="M1323.1 626.625V575.76H1328.86V581.688H1329.53C1330.75 579.734 1333.04 575.297 1340.25 575.297C1349.49 575.297 1355.95 582.648 1355.95 594.371C1355.95 606.16 1349.53 613.578 1340.29 613.578C1333.23 613.578 1330.75 609.107 1329.53 607.054H1329.06V626.625H1323.1ZM1339.39 608.246C1346.31 608.246 1349.89 602.087 1349.89 594.305C1349.89 586.622 1346.41 580.628 1339.39 580.628C1332.57 580.628 1329 586.125 1329 594.305C1329 602.55 1332.67 608.246 1339.39 608.246Z" fill="black"/>
<path d="M1364.62 612.783V575.76H1370.39V581.456H1370.78C1372.14 577.714 1375.98 575.23 1380.39 575.23C1381.25 575.23 1382.71 575.297 1383.4 575.33V581.324C1383.04 581.257 1381.41 580.992 1379.82 580.992C1374.49 580.992 1370.59 584.602 1370.59 589.602V612.783H1364.62Z" fill="black"/>
<path d="M1391.22 612.782V575.76H1397.18V612.782H1391.22ZM1394.23 569.7C1391.98 569.7 1390.09 567.945 1390.09 565.759C1390.09 563.573 1391.98 561.818 1394.23 561.818C1396.52 561.818 1398.41 563.573 1398.41 565.759C1398.41 567.945 1396.52 569.7 1394.23 569.7Z" fill="black"/>
<path d="M1422.71 613.578C1412.64 613.578 1405.85 605.928 1405.85 594.503C1405.85 582.913 1412.64 575.297 1422.71 575.297C1429.86 575.297 1435.69 579.072 1437.71 585.529L1431.98 587.152C1430.89 583.344 1427.57 580.628 1422.71 580.628C1415.32 580.628 1411.91 587.119 1411.91 594.503C1411.91 601.789 1415.32 608.246 1422.71 608.246C1427.67 608.246 1431.05 605.431 1432.14 601.424L1437.84 603.047C1435.85 609.637 1429.96 613.578 1422.71 613.578Z" fill="black"/>
<path d="M1461.95 613.578C1451.22 613.578 1444.6 605.961 1444.6 594.57C1444.6 583.211 1451.16 575.297 1461.26 575.297C1469.11 575.297 1477.39 580.132 1477.39 593.808V596.292H1450.63C1450.93 604.04 1455.43 608.279 1461.99 608.279C1466.36 608.279 1469.64 606.359 1471.03 602.583L1476.79 604.173C1475.07 609.769 1469.54 613.578 1461.95 613.578ZM1450.66 591.258H1471.33C1470.76 584.966 1467.35 580.595 1461.26 580.595C1454.9 580.595 1451.03 585.596 1450.66 591.258Z" fill="black"/>
<path d="M1904.16 613.577C1894.92 613.577 1888.49 606.159 1888.49 594.371C1888.49 582.648 1894.95 575.296 1904.19 575.296C1911.41 575.296 1913.69 579.734 1914.92 581.688H1915.38V563.441H1921.34V612.782H1915.58V607.054H1914.92C1913.69 609.107 1911.21 613.577 1904.16 613.577ZM1905.05 608.246C1911.77 608.246 1915.45 602.55 1915.45 594.304C1915.45 586.125 1911.87 580.628 1905.05 580.628C1898.03 580.628 1894.55 586.622 1894.55 594.304C1894.55 602.086 1898.13 608.246 1905.05 608.246Z" fill="black"/>
<path d="M1946.87 613.578C1936.8 613.578 1930.02 605.928 1930.02 594.503C1930.02 582.913 1936.8 575.297 1946.87 575.297C1956.97 575.297 1963.79 582.913 1963.79 594.503C1963.79 605.928 1956.97 613.578 1946.87 613.578ZM1946.87 608.246C1954.35 608.246 1957.77 601.789 1957.77 594.503C1957.77 587.152 1954.35 580.628 1946.87 580.628C1939.49 580.628 1936.08 587.119 1936.08 594.503C1936.08 601.789 1939.49 608.246 1946.87 608.246Z" fill="black"/>
<path d="M1985.02 613.246C1977.54 613.246 1972.47 608.643 1972.47 599.271V575.76H1978.43V598.775C1978.43 604.47 1981.64 607.881 1986.81 607.881C1992.11 607.881 1996.11 604.272 1996.11 597.947V575.76H2002.11V612.782H1996.34V605.861C1993.93 611.259 1989.89 613.246 1985.02 613.246Z" fill="black"/>
<path d="M2029.76 613.577C2022.7 613.577 2020.22 609.107 2018.99 607.054H2018.33V612.782H2012.57V563.441H2018.53V581.688H2018.99C2020.22 579.734 2022.5 575.296 2029.72 575.296C2038.96 575.296 2045.42 582.648 2045.42 594.371C2045.42 606.159 2039 613.577 2029.76 613.577ZM2028.86 608.246C2035.78 608.246 2039.36 602.086 2039.36 594.304C2039.36 586.622 2035.88 580.628 2028.86 580.628C2022.04 580.628 2018.46 586.125 2018.46 594.304C2018.46 602.55 2022.14 608.246 2028.86 608.246Z" fill="black"/>
<path d="M2060.06 563.441V612.782H2054.1V563.441H2060.06Z" fill="black"/>
<path d="M2086.09 613.578C2075.36 613.578 2068.73 605.961 2068.73 594.57C2068.73 583.211 2075.29 575.297 2085.39 575.297C2093.24 575.297 2101.52 580.132 2101.52 593.808V596.292H2074.76C2075.06 604.04 2079.56 608.279 2086.12 608.279C2090.49 608.279 2093.77 606.359 2095.16 602.583L2100.92 604.173C2099.2 609.769 2093.67 613.578 2086.09 613.578ZM2074.79 591.258H2095.46C2094.9 584.966 2091.48 580.595 2085.39 580.595C2079.03 580.595 2075.16 585.596 2074.79 591.258Z" fill="black"/>
<path d="M1.19531 20.9285C1.19531 15.5561 3.32953 10.4038 7.12837 6.60494C10.9272 2.80609 16.0795 0.671875 21.4519 0.671875H1032.25C1037.63 0.671875 1042.78 2.80609 1046.58 6.60494C1050.38 10.4038 1052.51 15.5561 1052.51 20.9285V750.165C1052.51 755.538 1050.38 760.69 1046.58 764.489C1042.78 768.288 1037.63 770.422 1032.25 770.422H21.4519C16.0795 770.422 10.9272 768.288 7.12837 764.489C3.32953 760.69 1.19531 755.538 1.19531 750.165V20.9285Z" fill="white"/>
<path d="M1.19531 162.725V20.9285C1.19531 15.5561 3.32953 10.4038 7.12837 6.60494C10.9272 2.80609 16.0795 0.671875 21.4519 0.671875H1032.25C1037.63 0.671875 1042.78 2.80609 1046.58 6.60494C1050.38 10.4038 1052.51 15.5561 1052.51 20.9285V162.725" fill="#DEDEFF"/>
<path d="M1.19531 162.725H1052.51M561.411 162.725V770.422M1.19531 20.9285C1.19531 15.5561 3.32953 10.4038 7.12837 6.60494C10.9272 2.80609 16.0795 0.671875 21.4519 0.671875H1032.25C1037.63 0.671875 1042.78 2.80609 1046.58 6.60494C1050.38 10.4038 1052.51 15.5561 1052.51 20.9285V750.165C1052.51 755.538 1050.38 760.69 1046.58 764.489C1042.78 768.288 1037.63 770.422 1032.25 770.422H21.4519C16.0795 770.422 10.9272 768.288 7.12837 764.489C3.32953 760.69 1.19531 755.538 1.19531 750.165V20.9285Z" stroke="#282C33"/>
<path d="M46.9375 106.369V69.3462H52.6995V75.042H53.0968C54.4545 71.3 58.2958 68.8164 62.7001 68.8164C63.5611 68.8164 65.0181 68.8826 65.7135 68.9158V74.9095C65.3493 74.8433 63.7267 74.5784 62.1372 74.5784C56.8057 74.5784 52.8981 78.1879 52.8981 83.1882V106.369H46.9375Z" fill="black"/>
<path d="M86.9068 107.163C76.1776 107.163 69.5547 99.5471 69.5547 88.1556C69.5547 76.7972 76.1114 68.8828 86.2114 68.8828C94.0596 68.8828 102.338 73.7176 102.338 87.394V89.8776H75.5816C75.8796 97.6264 80.3832 101.865 86.9399 101.865C91.3111 101.865 94.5894 99.9445 95.9802 96.1694L101.742 97.7589C100.02 103.355 94.4901 107.163 86.9068 107.163ZM75.6147 84.8441H96.2783C95.7153 78.5523 92.3045 74.1812 86.2114 74.1812C79.8534 74.1812 75.9789 79.1815 75.6147 84.8441Z" fill="black"/>
<path d="M125.949 107.163C115.882 107.163 109.094 99.514 109.094 88.0894C109.094 76.4992 115.882 68.8828 125.949 68.8828C133.102 68.8828 138.93 72.6579 140.95 79.1153L135.221 80.7379C134.128 76.9297 130.817 74.2143 125.949 74.2143C118.565 74.2143 115.154 80.7048 115.154 88.0894C115.154 95.3746 118.565 101.832 125.949 101.832C130.916 101.832 134.294 99.0172 135.387 95.0104L141.083 96.633C139.096 103.223 133.201 107.163 125.949 107.163Z" fill="black"/>
<path d="M147.707 119.779L149.231 114.614C153.204 115.806 156.019 115.243 157.94 109.646L158.999 106.567L144.859 69.3457H151.383C154.926 79.7106 159.231 89.8769 162.112 100.805C164.993 89.8437 169.364 79.7106 172.908 69.3457H179.398L163.139 111.898C160.887 117.793 157.311 120.475 152.078 120.475C149.959 120.475 148.336 120.078 147.707 119.779Z" fill="black"/>
<path d="M200.16 107.163C190.093 107.163 183.305 99.514 183.305 88.0894C183.305 76.4992 190.093 68.8828 200.16 68.8828C207.313 68.8828 213.141 72.6579 215.161 79.1153L209.432 80.7379C208.339 76.9297 205.028 74.2143 200.16 74.2143C192.775 74.2143 189.365 80.7048 189.365 88.0894C189.365 95.3746 192.775 101.832 200.16 101.832C205.127 101.832 208.505 99.0172 209.598 95.0104L215.294 96.633C213.307 103.223 207.412 107.163 200.16 107.163Z" fill="black"/>
<path d="M229.797 57.0273V106.368H223.836V57.0273H229.797Z" fill="black"/>
<path d="M255.829 107.163C245.1 107.163 238.477 99.5471 238.477 88.1556C238.477 76.7972 245.033 68.8828 255.133 68.8828C262.981 68.8828 271.26 73.7176 271.26 87.394V89.8776H244.503C244.801 97.6264 249.305 101.865 255.862 101.865C260.233 101.865 263.511 99.9445 264.902 96.1694L270.664 97.7589C268.942 103.355 263.412 107.163 255.829 107.163ZM244.537 84.8441H265.2C264.637 78.5523 261.226 74.1812 255.133 74.1812C248.775 74.1812 244.901 79.1815 244.537 84.8441Z" fill="black"/>
<path d="M292.38 107.163C284.764 107.163 279.465 103.786 278.141 97.3946L283.803 96.0369C284.863 100.11 287.876 101.931 292.314 101.931C297.48 101.931 300.791 99.3815 300.791 96.335C300.791 93.7851 299.003 92.0963 295.36 91.2353L289.201 89.7782C282.479 88.1887 279.267 84.8772 279.267 79.6782C279.267 73.3202 285.095 68.8828 292.976 68.8828C300.592 68.8828 304.599 72.5917 306.288 77.7907L300.89 79.1815C299.864 76.5323 297.778 73.9494 293.009 73.9494C288.605 73.9494 285.293 76.2343 285.293 79.314C285.293 82.0625 287.181 83.5858 291.519 84.6123L297.115 85.9369C303.838 87.5264 306.984 90.871 306.984 95.9376C306.984 102.428 301.056 107.163 292.38 107.163Z" fill="black"/>
<path d="M26.6806 248.165V211.142H32.6412V248.165H26.6806ZM29.694 205.082C27.4422 205.082 25.5547 203.327 25.5547 201.142C25.5547 198.956 27.4422 197.201 29.694 197.201C31.9789 197.201 33.8665 198.956 33.8665 201.142C33.8665 203.327 31.9789 205.082 29.694 205.082Z" fill="black"/>
<path d="M56.9836 248.96C47.7446 248.96 41.3203 241.542 41.3203 229.753C41.3203 218.031 47.7777 210.679 57.0167 210.679C64.2357 210.679 66.5206 215.117 67.7459 217.07H68.2095V198.824H74.1701V248.165H68.4082V242.436H67.7459C66.5206 244.489 64.037 248.96 56.9836 248.96ZM57.8777 243.628C64.6 243.628 68.2757 237.933 68.2757 229.687C68.2757 221.508 64.6993 216.011 57.8777 216.011C50.8574 216.011 47.3803 222.005 47.3803 229.687C47.3803 237.469 50.9567 243.628 57.8777 243.628Z" fill="black"/>
<path d="M601.965 248.96C591.898 248.96 585.109 241.311 585.109 229.886C585.109 218.296 591.898 210.68 601.965 210.68C612.065 210.68 618.886 218.296 618.886 229.886C618.886 241.311 612.065 248.96 601.965 248.96ZM601.965 243.629C609.449 243.629 612.86 237.171 612.86 229.886C612.86 222.535 609.449 216.011 601.965 216.011C594.58 216.011 591.169 222.502 591.169 229.886C591.169 237.171 594.58 243.629 601.965 243.629Z" fill="black"/>
<path d="M644.749 248.96C637.696 248.96 635.212 244.489 633.987 242.436H633.324V248.165H627.562V198.824H633.523V217.07H633.987C635.212 215.117 637.497 210.679 644.716 210.679C653.955 210.679 660.412 218.031 660.412 229.753C660.412 241.542 653.988 248.96 644.749 248.96ZM643.855 243.628C650.776 243.628 654.352 237.469 654.352 229.687C654.352 222.005 650.875 216.011 643.855 216.011C637.033 216.011 633.457 221.508 633.457 229.687C633.457 237.933 637.133 243.628 643.855 243.628Z" fill="black"/>
<path d="M669.052 211.142H675.046V250.814C675.079 258.265 670.973 262.404 662.992 262.007V256.51C667.165 256.808 669.085 254.92 669.052 250.814V211.142ZM672.066 205.082C669.814 205.082 667.926 203.327 667.926 201.142C667.926 198.956 669.814 197.201 672.066 197.201C674.351 197.201 676.238 198.956 676.238 201.142C676.238 203.327 674.351 205.082 672.066 205.082Z" fill="black"/>
<path d="M701.079 248.96C690.35 248.96 683.727 241.344 683.727 229.952C683.727 218.594 690.283 210.68 700.383 210.68C708.231 210.68 716.51 215.514 716.51 229.191V231.674H689.753C690.051 239.423 694.555 243.662 701.112 243.662C705.483 243.662 708.761 241.741 710.152 237.966L715.914 239.556C714.192 245.152 708.662 248.96 701.079 248.96ZM689.787 226.641H710.45C709.887 220.349 706.476 215.978 700.383 215.978C694.025 215.978 690.151 220.978 689.787 226.641Z" fill="black"/>
<path d="M740.121 248.96C730.054 248.96 723.266 241.311 723.266 229.886C723.266 218.296 730.054 210.68 740.121 210.68C747.274 210.68 753.102 214.455 755.122 220.912L749.393 222.535C748.3 218.727 744.989 216.011 740.121 216.011C732.736 216.011 729.326 222.502 729.326 229.886C729.326 237.171 732.736 243.629 740.121 243.629C745.088 243.629 748.466 240.814 749.559 236.807L755.254 238.43C753.268 245.02 747.373 248.96 740.121 248.96Z" fill="black"/>
<path d="M778.367 211.143V216.242H770.75V238.562C770.75 241.873 771.976 243.33 775.122 243.33C775.883 243.33 777.175 243.131 778.168 242.933L779.393 247.966C778.168 248.397 776.479 248.628 774.956 248.628C768.565 248.628 764.79 245.085 764.79 239.025V216.242H759.227V211.143H764.79V202.334H770.75V211.143H778.367Z" fill="black"/>
<path d="M785.985 248.165V211.142H791.946V248.165H785.985ZM788.999 205.082C786.747 205.082 784.859 203.327 784.859 201.142C784.859 198.956 786.747 197.201 788.999 197.201C791.284 197.201 793.171 198.956 793.171 201.142C793.171 203.327 791.284 205.082 788.999 205.082Z" fill="black"/>
<path d="M816.28 248.96C807.041 248.96 800.617 241.542 800.617 229.753C800.617 218.031 807.075 210.679 816.314 210.679C823.533 210.679 825.817 215.117 827.043 217.07H827.506V198.824H833.467V248.165H827.705V242.436H827.043C825.817 244.489 823.334 248.96 816.28 248.96ZM817.175 243.628C823.897 243.628 827.573 237.933 827.573 229.687C827.573 221.508 823.996 216.011 817.175 216.011C810.154 216.011 806.677 222.005 806.677 229.687C806.677 237.469 810.254 243.628 817.175 243.628Z" fill="black"/>
<path d="M32.6403 347.518V369.705H26.6797V332.682H32.4085L32.4416 339.537C34.8259 334.305 38.7997 332.219 43.7669 332.219C51.2508 332.219 56.2842 336.822 56.2842 346.193V369.705H50.3236V346.69C50.3236 340.994 47.1446 337.583 41.9787 337.583C36.6472 337.583 32.6403 341.193 32.6403 347.518Z" fill="black"/>
<path d="M77.1167 370.566C70.0964 370.566 64.5 366.459 64.5 359.174C64.5 350.697 72.0502 349.14 78.9049 348.279C85.5941 347.385 88.4088 347.75 88.4088 344.703C88.4088 340.1 85.7928 337.451 80.66 337.451C75.3285 337.451 72.4475 340.299 71.2885 342.882L65.5597 340.994C68.4075 334.272 74.7656 332.219 80.4944 332.219C85.4616 332.219 94.3695 333.742 94.3695 345.299V369.705H88.5082V364.671H88.1108C86.8524 367.287 83.3754 370.566 77.1167 370.566ZM78.1433 365.3C84.7331 365.3 88.4088 360.863 88.4088 356.326V351.194C87.4154 352.353 80.9249 353.015 78.64 353.313C74.302 353.876 70.4938 355.267 70.4938 359.472C70.4938 363.314 73.7059 365.3 78.1433 365.3Z" fill="black"/>
<path d="M104.828 369.704V332.682H110.623L110.656 339.47C112.478 334.47 116.65 332.02 121.021 332.02C125.889 332.02 129.134 335 130.459 339.57C132.214 334.901 136.751 332.02 142.115 332.02C148.54 332.02 153.772 336.159 153.772 344.736V369.704H147.778V344.901C147.778 339.57 144.301 337.45 140.327 337.45C135.327 337.45 132.28 340.861 132.28 345.53V369.704H126.32V344.305C126.32 340.199 123.24 337.45 119.067 337.45C114.729 337.45 110.789 340.497 110.789 346.391V369.704H104.828Z" fill="black"/>
<path d="M179.805 370.499C169.076 370.499 162.453 362.883 162.453 351.492C162.453 340.133 169.01 332.219 179.11 332.219C186.958 332.219 195.237 337.054 195.237 350.73V353.214H168.48C168.778 360.962 173.282 365.201 179.838 365.201C184.209 365.201 187.488 363.28 188.879 359.505L194.641 361.095C192.919 366.691 187.389 370.499 179.805 370.499ZM168.513 348.18H189.177C188.614 341.888 185.203 337.517 179.11 337.517C172.752 337.517 168.877 342.517 168.513 348.18Z" fill="black"/>
<path d="M599.482 370.499C591.865 370.499 586.567 367.122 585.242 360.731L590.905 359.373C591.964 363.446 594.978 365.267 599.415 365.267C604.581 365.267 607.893 362.717 607.893 359.671C607.893 357.121 606.104 355.432 602.462 354.571L596.303 353.114C589.58 351.525 586.368 348.213 586.368 343.014C586.368 336.656 592.196 332.219 600.078 332.219C607.694 332.219 611.701 335.928 613.39 341.127L607.992 342.517C606.965 339.868 604.879 337.285 600.111 337.285C595.706 337.285 592.395 339.57 592.395 342.65C592.395 345.398 594.283 346.922 598.621 347.948L604.217 349.273C610.939 350.862 614.085 354.207 614.085 359.274C614.085 365.764 608.158 370.499 599.482 370.499Z" fill="black"/>
<path d="M637.265 332.682V337.781H629.649V360.101C629.649 363.412 630.874 364.869 634.02 364.869C634.782 364.869 636.073 364.67 637.067 364.472L638.292 369.505C637.067 369.936 635.378 370.167 633.854 370.167C627.463 370.167 623.688 366.624 623.688 360.564V337.781H618.125V332.682H623.688V323.873H629.649V332.682H637.265Z" fill="black"/>
<path d="M644.883 369.704V332.682H650.645V338.378H651.042C652.4 334.636 656.241 332.152 660.645 332.152C661.506 332.152 662.963 332.219 663.659 332.252V338.245C663.295 338.179 661.672 337.914 660.082 337.914C654.751 337.914 650.843 341.524 650.843 346.524V369.704H644.883Z" fill="black"/>
<path d="M671.47 369.704V332.682H677.43V369.704H671.47ZM674.483 326.622C672.231 326.622 670.344 324.866 670.344 322.681C670.344 320.495 672.231 318.74 674.483 318.74C676.768 318.74 678.656 320.495 678.656 322.681C678.656 324.866 676.768 326.622 674.483 326.622Z" fill="black"/>
<path d="M693.859 347.518V369.705H687.898V332.682H693.627L693.66 339.537C696.045 334.305 700.018 332.219 704.986 332.219C712.47 332.219 717.503 336.822 717.503 346.193V369.705H711.542V346.69C711.542 340.994 708.363 337.583 703.197 337.583C697.866 337.583 693.859 341.193 693.859 347.518Z" fill="black"/>
<path d="M742.969 384.341C734.756 384.341 730.021 380.864 727.736 376.791L732.571 373.678C734.127 375.831 736.445 379.142 742.969 379.142C748.863 379.142 753.135 376.427 753.135 370.334V362.916H752.572C751.314 365.035 748.963 369.109 741.81 369.109C732.935 369.109 726.18 362.651 726.18 351.028C726.18 339.57 732.703 332.219 741.942 332.219C749.095 332.219 751.479 336.623 752.738 338.61H753.301V332.682H759.096V370.665C759.096 380.235 751.976 384.341 742.969 384.341ZM742.803 363.81C749.526 363.81 753.201 358.975 753.201 350.895C753.201 343.047 749.625 337.55 742.803 337.55C735.75 337.55 732.24 343.511 732.24 350.895C732.24 358.512 735.849 363.81 742.803 363.81Z" fill="black"/>
<path d="M26.6797 505.086V454.221H32.4416V460.149H33.1039C34.3292 458.195 36.6141 453.758 43.8331 453.758C53.0721 453.758 59.5295 461.109 59.5295 472.832C59.5295 484.621 53.1052 492.038 43.8662 492.038C36.8128 492.038 34.3292 487.568 33.1039 485.515H32.6403V505.086H26.6797ZM42.9721 486.707C49.8931 486.707 53.4695 480.548 53.4695 472.766C53.4695 465.083 49.9924 459.089 42.9721 459.089C36.1505 459.089 32.5741 464.586 32.5741 472.766C32.5741 481.011 36.2498 486.707 42.9721 486.707Z" fill="black"/>
<path d="M74.1638 469.056V491.243H68.2031V441.902H74.1638V460.645C76.5811 455.711 80.4556 453.757 85.2903 453.757C92.7742 453.757 97.8408 458.36 97.8408 467.732V491.243H91.847V468.229C91.847 462.533 88.668 459.122 83.5021 459.122C78.1707 459.122 74.1638 462.732 74.1638 469.056Z" fill="black"/>
<path d="M123.371 492.038C113.304 492.038 106.516 484.389 106.516 472.964C106.516 461.374 113.304 453.758 123.371 453.758C133.471 453.758 140.293 461.374 140.293 472.964C140.293 484.389 133.471 492.038 123.371 492.038ZM123.371 486.707C130.855 486.707 134.266 480.25 134.266 472.964C134.266 465.613 130.855 459.089 123.371 459.089C115.986 459.089 112.576 465.58 112.576 472.964C112.576 480.25 115.986 486.707 123.371 486.707Z" fill="black"/>
<path d="M154.929 469.057V491.244H148.969V454.221H154.698L154.731 461.076C157.115 455.844 161.089 453.758 166.056 453.758C173.54 453.758 178.573 458.361 178.573 467.732V491.244H172.613V468.229C172.613 462.533 169.434 459.122 164.268 459.122C158.936 459.122 154.929 462.732 154.929 469.057Z" fill="black"/>
<path d="M204.602 492.038C193.873 492.038 187.25 484.422 187.25 473.031C187.25 461.672 193.807 453.758 203.907 453.758C211.755 453.758 220.034 458.593 220.034 472.269V474.753H193.277C193.575 482.501 198.079 486.74 204.635 486.74C209.006 486.74 212.285 484.819 213.676 481.044L219.438 482.634C217.716 488.23 212.185 492.038 204.602 492.038ZM193.31 469.719H213.974C213.411 463.427 210 459.056 203.907 459.056C197.549 459.056 193.674 464.057 193.31 469.719Z" fill="black"/>
<path d="M599.482 492.038C591.865 492.038 586.567 488.661 585.242 482.27L590.905 480.912C591.964 484.985 594.978 486.806 599.415 486.806C604.581 486.806 607.893 484.257 607.893 481.21C607.893 478.66 606.104 476.971 602.462 476.11L596.303 474.653C589.58 473.064 586.368 469.752 586.368 464.553C586.368 458.195 592.196 453.758 600.078 453.758C607.694 453.758 611.701 457.467 613.39 462.666L607.992 464.057C606.965 461.407 604.879 458.824 600.111 458.824C595.706 458.824 592.395 461.109 592.395 464.189C592.395 466.937 594.283 468.461 598.621 469.487L604.217 470.812C610.939 472.401 614.085 475.746 614.085 480.813C614.085 487.303 608.158 492.038 599.482 492.038Z" fill="black"/>
<path d="M637.265 454.221V459.32H629.649V481.64C629.649 484.951 630.874 486.408 634.02 486.408C634.782 486.408 636.073 486.209 637.067 486.011L638.292 491.044C637.067 491.475 635.378 491.707 633.854 491.707C627.463 491.707 623.688 488.163 623.688 482.103V459.32H618.125V454.221H623.688V445.412H629.649V454.221H637.265Z" fill="black"/>
<path d="M644.883 491.244V454.221H650.645V459.917H651.042C652.4 456.175 656.241 453.691 660.645 453.691C661.506 453.691 662.963 453.758 663.659 453.791V459.785C663.295 459.718 661.672 459.453 660.082 459.453C654.751 459.453 650.843 463.063 650.843 468.063V491.244H644.883Z" fill="black"/>
<path d="M671.47 491.243V454.221H677.43V491.243H671.47ZM674.483 448.161C672.231 448.161 670.344 446.406 670.344 444.22C670.344 442.034 672.231 440.279 674.483 440.279C676.768 440.279 678.656 442.034 678.656 444.22C678.656 446.406 676.768 448.161 674.483 448.161Z" fill="black"/>
<path d="M693.859 469.057V491.244H687.898V454.221H693.627L693.66 461.076C696.045 455.844 700.018 453.758 704.986 453.758C712.47 453.758 717.503 458.361 717.503 467.732V491.244H711.542V468.229C711.542 462.533 708.363 459.122 703.197 459.122C697.866 459.122 693.859 462.732 693.859 469.057Z" fill="black"/>
<path d="M742.969 505.88C734.756 505.88 730.021 502.403 727.736 498.33L732.571 495.217C734.127 497.37 736.445 500.681 742.969 500.681C748.863 500.681 753.135 497.966 753.135 491.873V484.455H752.572C751.314 486.575 748.963 490.648 741.81 490.648C732.935 490.648 726.18 484.19 726.18 472.567C726.18 461.109 732.703 453.758 741.942 453.758C749.095 453.758 751.479 458.162 752.738 460.149H753.301V454.221H759.096V492.204C759.096 501.774 751.976 505.88 742.969 505.88ZM742.803 485.349C749.526 485.349 753.201 480.515 753.201 472.435C753.201 464.586 749.625 459.089 742.803 459.089C735.75 459.089 732.24 465.05 732.24 472.435C732.24 480.051 735.849 485.349 742.803 485.349Z" fill="black"/>
<path d="M37.0464 613.644C30.0261 613.644 24.4297 609.538 24.4297 602.252C24.4297 593.775 31.9798 592.219 38.8346 591.358C45.5238 590.463 48.3385 590.828 48.3385 587.781C48.3385 583.178 45.7225 580.529 40.5897 580.529C35.2582 580.529 32.3772 583.377 31.2182 585.96L25.4894 584.072C28.3372 577.35 34.6952 575.297 40.4241 575.297C45.3913 575.297 54.2992 576.82 54.2992 588.377V612.783H48.4379V607.749H48.0405C46.7821 610.365 43.3051 613.644 37.0464 613.644ZM38.073 608.379C44.6628 608.379 48.3385 603.941 48.3385 599.404V594.272C47.3451 595.431 40.8546 596.093 38.5697 596.391C34.2316 596.954 30.4235 598.345 30.4235 602.55C30.4235 606.392 33.6356 608.379 38.073 608.379Z" fill="black"/>
<path d="M78.6398 613.577C69.4008 613.577 62.9766 606.159 62.9766 594.371C62.9766 582.648 69.4339 575.296 78.6729 575.296C85.8919 575.296 88.1769 579.734 89.4021 581.688H89.8657V563.441H95.8264V612.782H90.0644V607.054H89.4021C88.1769 609.107 85.6933 613.577 78.6398 613.577ZM79.5339 608.246C86.2562 608.246 89.9319 602.55 89.9319 594.304C89.9319 586.125 86.3556 580.628 79.5339 580.628C72.5136 580.628 69.0366 586.622 69.0366 594.304C69.0366 602.086 72.6129 608.246 79.5339 608.246Z" fill="black"/>
<path d="M120.163 613.577C110.924 613.577 104.5 606.159 104.5 594.371C104.5 582.648 110.957 575.296 120.196 575.296C127.415 575.296 129.7 579.734 130.926 581.688H131.389V563.441H137.35V612.782H131.588V607.054H130.926C129.7 609.107 127.217 613.577 120.163 613.577ZM121.057 608.246C127.78 608.246 131.455 602.55 131.455 594.304C131.455 586.125 127.879 580.628 121.057 580.628C114.037 580.628 110.56 586.622 110.56 594.304C110.56 602.086 114.136 608.246 121.057 608.246Z" fill="black"/>
<path d="M147.812 612.783V575.76H153.574V581.456H153.972C155.33 577.714 159.171 575.23 163.575 575.23C164.436 575.23 165.893 575.297 166.589 575.33V581.324C166.224 581.257 164.602 580.992 163.012 580.992C157.681 580.992 153.773 584.602 153.773 589.602V612.783H147.812Z" fill="black"/>
<path d="M187.782 613.578C177.053 613.578 170.43 605.961 170.43 594.57C170.43 583.211 176.986 575.297 187.086 575.297C194.935 575.297 203.213 580.132 203.213 593.808V596.292H176.457C176.755 604.04 181.258 608.279 187.815 608.279C192.186 608.279 195.464 606.359 196.855 602.583L202.617 604.173C200.895 609.769 195.365 613.578 187.782 613.578ZM176.49 591.258H197.153C196.59 584.966 193.179 580.595 187.086 580.595C180.728 580.595 176.854 585.596 176.49 591.258Z" fill="black"/>
<path d="M224.341 613.578C216.725 613.578 211.426 610.2 210.102 603.809L215.764 602.451C216.824 606.524 219.837 608.345 224.275 608.345C229.441 608.345 232.752 605.796 232.752 602.749C232.752 600.199 230.964 598.51 227.321 597.649L221.162 596.192C214.44 594.603 211.227 591.291 211.227 586.092C211.227 579.734 217.056 575.297 224.937 575.297C232.553 575.297 236.56 579.006 238.249 584.205L232.851 585.596C231.825 582.946 229.739 580.363 224.97 580.363C220.566 580.363 217.254 582.648 217.254 585.728C217.254 588.477 219.142 590 223.48 591.026L229.076 592.351C235.799 593.94 238.944 597.285 238.944 602.352C238.944 608.842 233.017 613.578 224.341 613.578Z" fill="black"/>
<path d="M260.138 613.578C252.521 613.578 247.223 610.2 245.898 603.809L251.561 602.451C252.621 606.524 255.634 608.345 260.072 608.345C265.237 608.345 268.549 605.796 268.549 602.749C268.549 600.199 266.761 598.51 263.118 597.649L256.959 596.192C250.236 594.603 247.024 591.291 247.024 586.092C247.024 579.734 252.853 575.297 260.734 575.297C268.35 575.297 272.357 579.006 274.046 584.205L268.648 585.596C267.622 582.946 265.535 580.363 260.767 580.363C256.363 580.363 253.051 582.648 253.051 585.728C253.051 588.477 254.939 590 259.277 591.026L264.873 592.351C271.595 593.94 274.741 597.285 274.741 602.352C274.741 608.842 268.814 613.578 260.138 613.578Z" fill="black"/>
<path d="M309.054 612.781V618.278H278.125V612.781H309.054Z" fill="black"/>
<path d="M316.571 612.782V575.76H322.532V612.782H316.571ZM319.585 569.7C317.333 569.7 315.445 567.945 315.445 565.759C315.445 563.573 317.333 561.818 319.585 561.818C321.87 561.818 323.757 563.573 323.757 565.759C323.757 567.945 321.87 569.7 319.585 569.7Z" fill="black"/>
<path d="M346.866 613.577C337.627 613.577 331.203 606.159 331.203 594.371C331.203 582.648 337.66 575.296 346.9 575.296C354.119 575.296 356.403 579.734 357.629 581.688H358.092V563.441H364.053V612.782H358.291V607.054H357.629C356.403 609.107 353.92 613.577 346.866 613.577ZM347.76 608.246C354.483 608.246 358.159 602.55 358.159 594.304C358.159 586.125 354.582 580.628 347.76 580.628C340.74 580.628 337.263 586.622 337.263 594.304C337.263 602.086 340.84 608.246 347.76 608.246Z" fill="black"/>
<path d="M599.482 613.578C591.865 613.578 586.567 610.2 585.242 603.809L590.905 602.451C591.964 606.524 594.978 608.345 599.415 608.345C604.581 608.345 607.893 605.796 607.893 602.749C607.893 600.199 606.104 598.51 602.462 597.649L596.303 596.192C589.58 594.603 586.368 591.291 586.368 586.092C586.368 579.734 592.196 575.297 600.078 575.297C607.694 575.297 611.701 579.006 613.39 584.205L607.992 585.596C606.965 582.946 604.879 580.363 600.111 580.363C595.706 580.363 592.395 582.648 592.395 585.728C592.395 588.477 594.283 590 598.621 591.026L604.217 592.351C610.939 593.94 614.085 597.285 614.085 602.352C614.085 608.842 608.158 613.578 599.482 613.578Z" fill="black"/>
<path d="M637.265 575.76V580.859H629.649V603.179C629.649 606.49 630.874 607.947 634.02 607.947C634.782 607.947 636.073 607.749 637.067 607.55L638.292 612.583C637.067 613.014 635.378 613.246 633.854 613.246C627.463 613.246 623.688 609.702 623.688 603.642V580.859H618.125V575.76H623.688V566.951H629.649V575.76H637.265Z" fill="black"/>
<path d="M644.883 612.783V575.76H650.645V581.456H651.042C652.4 577.714 656.241 575.23 660.645 575.23C661.506 575.23 662.963 575.297 663.659 575.33V581.324C663.295 581.257 661.672 580.992 660.082 580.992C654.751 580.992 650.843 584.602 650.843 589.602V612.783H644.883Z" fill="black"/>
<path d="M671.47 612.782V575.76H677.43V612.782H671.47ZM674.483 569.7C672.231 569.7 670.344 567.945 670.344 565.759C670.344 563.573 672.231 561.818 674.483 561.818C676.768 561.818 678.656 563.573 678.656 565.759C678.656 567.945 676.768 569.7 674.483 569.7Z" fill="black"/>
<path d="M693.859 590.596V612.783H687.898V575.76H693.627L693.66 582.615C696.045 577.383 700.018 575.297 704.986 575.297C712.47 575.297 717.503 579.9 717.503 589.271V612.783H711.542V589.768C711.542 584.072 708.363 580.661 703.197 580.661C697.866 580.661 693.859 584.271 693.859 590.596Z" fill="black"/>
<path d="M742.969 627.42C734.756 627.42 730.021 623.942 727.736 619.869L732.571 616.757C734.127 618.909 736.445 622.22 742.969 622.22C748.863 622.22 753.135 619.505 753.135 613.412V605.994H752.572C751.314 608.114 748.963 612.187 741.81 612.187C732.935 612.187 726.18 605.729 726.18 594.106C726.18 582.648 732.703 575.297 741.942 575.297C749.095 575.297 751.479 579.701 752.738 581.688H753.301V575.76H759.096V613.743C759.096 623.313 751.976 627.42 742.969 627.42ZM742.803 606.888C749.526 606.888 753.201 602.054 753.201 593.974C753.201 586.125 749.625 580.628 742.803 580.628C735.75 580.628 732.24 586.589 732.24 593.974C732.24 601.59 735.849 606.888 742.803 606.888Z" fill="black"/>
<path d="M34.9915 734.323L23.7656 697.301H30.0905C33.0377 708.196 35.5545 715.845 38.1374 727.932C40.621 716.242 43.2371 708.03 46.0849 697.301H52.443C55.2577 708.063 57.7744 715.978 60.2249 727.833C62.7748 716.11 65.4239 708.03 68.3049 697.301H74.6298L63.4039 734.323H57.4764C54.6285 724.157 51.6482 714.785 49.1977 704.089C46.7141 714.852 43.8 724.124 40.919 734.323H34.9915Z" fill="black"/>
<path d="M92.5464 735.185C85.5261 735.185 79.9297 731.079 79.9297 723.793C79.9297 715.316 87.4798 713.76 94.3346 712.899C101.024 712.004 103.839 712.369 103.839 709.322C103.839 704.719 101.222 702.07 96.0897 702.07C90.7582 702.07 87.8772 704.918 86.7182 707.501L80.9894 705.613C83.8372 698.891 90.1952 696.838 95.9241 696.838C100.891 696.838 109.799 698.361 109.799 709.918V734.324H103.938V729.29H103.54C102.282 731.906 98.8051 735.185 92.5464 735.185ZM93.573 729.92C100.163 729.92 103.839 725.482 103.839 720.945V715.813C102.845 716.972 96.3546 717.634 94.0697 717.932C89.7316 718.495 85.9235 719.886 85.9235 724.091C85.9235 727.933 89.1356 729.92 93.573 729.92Z" fill="black"/>
<path d="M132.849 735.119C125.232 735.119 119.934 731.741 118.609 725.35L124.272 723.992C125.332 728.065 128.345 729.886 132.782 729.886C137.948 729.886 141.26 727.337 141.26 724.29C141.26 721.74 139.472 720.051 135.829 719.19L129.67 717.733C122.947 716.144 119.735 712.832 119.735 707.633C119.735 701.275 125.563 696.838 133.445 696.838C141.061 696.838 145.068 700.547 146.757 705.746L141.359 707.137C140.333 704.487 138.246 701.904 133.478 701.904C129.074 701.904 125.762 704.189 125.762 707.269C125.762 710.018 127.65 711.541 131.988 712.567L137.584 713.892C144.306 715.482 147.452 718.826 147.452 723.893C147.452 730.383 141.525 735.119 132.849 735.119Z" fill="black"/>
<path d="M170.632 697.301V702.4H163.016V724.72C163.016 728.031 164.241 729.488 167.387 729.488C168.149 729.488 169.44 729.29 170.434 729.091L171.659 734.124C170.434 734.555 168.745 734.787 167.222 734.787C160.831 734.787 157.055 731.243 157.055 725.183V702.4H151.492V697.301H157.055V688.492H163.016V697.301H170.632Z" fill="black"/>
<path d="M193.149 735.119C182.42 735.119 175.797 727.502 175.797 716.111C175.797 704.752 182.354 696.838 192.454 696.838C200.302 696.838 208.58 701.673 208.58 715.349V717.833H181.824C182.122 725.582 186.625 729.82 193.182 729.82C197.553 729.82 200.832 727.9 202.222 724.124L207.984 725.714C206.262 731.31 200.732 735.119 193.149 735.119ZM181.857 712.799H202.52C201.958 706.507 198.547 702.136 192.454 702.136C186.096 702.136 182.221 707.137 181.857 712.799Z" fill="black"/>
<path d="M242.82 734.322V739.819H211.891V734.322H242.82Z" fill="black"/>
<path d="M262.625 697.301V702.4H255.008V724.72C255.008 728.031 256.234 729.488 259.379 729.488C260.141 729.488 261.433 729.29 262.426 729.091L263.651 734.124C262.426 734.555 260.737 734.787 259.214 734.787C252.823 734.787 249.048 731.243 249.048 725.183V702.4H243.484V697.301H249.048V688.492H255.008V697.301H262.625Z" fill="black"/>
<path d="M270.965 747.735L272.488 742.569C276.462 743.761 279.277 743.198 281.198 737.601L282.257 734.522L268.117 697.301H274.641C278.184 707.666 282.489 717.832 285.37 728.76C288.251 717.799 292.622 707.666 296.165 697.301H302.656L286.397 739.853C284.145 745.748 280.568 748.43 275.336 748.43C273.217 748.43 271.594 748.033 270.965 747.735Z" fill="black"/>
<path d="M309.68 748.166V697.301H315.442V703.229H316.104C317.329 701.275 319.614 696.838 326.833 696.838C336.072 696.838 342.529 704.189 342.529 715.912C342.529 727.701 336.105 735.119 326.866 735.119C319.813 735.119 317.329 730.648 316.104 728.595H315.64V748.166H309.68ZM325.972 729.787C332.893 729.787 336.469 723.628 336.469 715.846C336.469 708.163 332.992 702.169 325.972 702.169C319.15 702.169 315.574 707.666 315.574 715.846C315.574 724.091 319.25 729.787 325.972 729.787Z" fill="black"/>
<path d="M366.766 735.119C356.037 735.119 349.414 727.502 349.414 716.111C349.414 704.752 355.971 696.838 366.071 696.838C373.919 696.838 382.198 701.673 382.198 715.349V717.833H355.441C355.739 725.582 360.243 729.82 366.799 729.82C371.17 729.82 374.449 727.9 375.84 724.124L381.602 725.714C379.88 731.31 374.349 735.119 366.766 735.119ZM355.474 712.799H376.138C375.575 706.507 372.164 702.136 366.071 702.136C359.713 702.136 355.838 707.137 355.474 712.799Z" fill="black"/>
<path d="M416.437 734.322V739.819H385.508V734.322H416.437Z" fill="black"/>
<path d="M423.954 734.323V697.301H429.915V734.323H423.954ZM426.967 691.241C424.716 691.241 422.828 689.486 422.828 687.3C422.828 685.114 424.716 683.359 426.967 683.359C429.252 683.359 431.14 685.114 431.14 687.3C431.14 689.486 429.252 691.241 426.967 691.241Z" fill="black"/>
<path d="M454.257 735.118C445.018 735.118 438.594 727.7 438.594 715.912C438.594 704.189 445.051 696.838 454.29 696.838C461.509 696.838 463.794 701.275 465.019 703.229H465.483V684.982H471.444V734.323H465.682V728.595H465.019C463.794 730.648 461.31 735.118 454.257 735.118ZM455.151 729.787C461.873 729.787 465.549 724.091 465.549 715.845C465.549 707.666 461.973 702.169 455.151 702.169C448.131 702.169 444.654 708.163 444.654 715.845C444.654 723.627 448.23 729.787 455.151 729.787Z" fill="black"/>
<path d="M599.482 735.119C591.865 735.119 586.567 731.741 585.242 725.35L590.905 723.992C591.964 728.065 594.978 729.886 599.415 729.886C604.581 729.886 607.893 727.337 607.893 724.29C607.893 721.74 606.104 720.051 602.462 719.19L596.303 717.733C589.58 716.144 586.368 712.832 586.368 707.633C586.368 701.275 592.196 696.838 600.078 696.838C607.694 696.838 611.701 700.547 613.39 705.746L607.992 707.137C606.965 704.487 604.879 701.904 600.111 701.904C595.706 701.904 592.395 704.189 592.395 707.269C592.395 710.018 594.283 711.541 598.621 712.567L604.217 713.892C610.939 715.482 614.085 718.826 614.085 723.893C614.085 730.383 608.158 735.119 599.482 735.119Z" fill="black"/>
<path d="M637.265 697.301V702.4H629.649V724.72C629.649 728.031 630.874 729.488 634.02 729.488C634.782 729.488 636.073 729.29 637.067 729.091L638.292 734.124C637.067 734.555 635.378 734.787 633.854 734.787C627.463 734.787 623.688 731.243 623.688 725.183V702.4H618.125V697.301H623.688V688.492H629.649V697.301H637.265Z" fill="black"/>
<path d="M644.883 734.324V697.301H650.645V702.997H651.042C652.4 699.255 656.241 696.771 660.645 696.771C661.506 696.771 662.963 696.838 663.659 696.871V702.865C663.295 702.798 661.672 702.533 660.082 702.533C654.751 702.533 650.843 706.143 650.843 711.143V734.324H644.883Z" fill="black"/>
<path d="M671.47 734.323V697.301H677.43V734.323H671.47ZM674.483 691.241C672.231 691.241 670.344 689.486 670.344 687.3C670.344 685.114 672.231 683.359 674.483 683.359C676.768 683.359 678.656 685.114 678.656 687.3C678.656 689.486 676.768 691.241 674.483 691.241Z" fill="black"/>
<path d="M693.859 712.137V734.324H687.898V697.301H693.627L693.66 704.156C696.045 698.924 700.018 696.838 704.986 696.838C712.47 696.838 717.503 701.441 717.503 710.812V734.324H711.542V711.309C711.542 705.613 708.363 702.202 703.197 702.202C697.866 702.202 693.859 705.812 693.859 712.137Z" fill="black"/>
<path d="M742.969 748.961C734.756 748.961 730.021 745.483 727.736 741.41L732.571 738.298C734.127 740.45 736.445 743.762 742.969 743.762C748.863 743.762 753.135 741.046 753.135 734.953V727.535H752.572C751.314 729.655 748.963 733.728 741.81 733.728C732.935 733.728 726.18 727.27 726.18 715.647C726.18 704.189 732.703 696.838 741.942 696.838C749.095 696.838 751.479 701.242 752.738 703.229H753.301V697.301H759.096V735.284C759.096 744.854 751.976 748.961 742.969 748.961ZM742.803 728.429C749.526 728.429 753.201 723.595 753.201 715.515C753.201 707.666 749.625 702.169 742.803 702.169C735.75 702.169 732.24 708.13 732.24 715.515C732.24 723.131 735.849 728.429 742.803 728.429Z" fill="black"/>
</g>
<defs>
<clipPath id="clip0_227_2957">
<rect width="2433" height="771" fill="white"/>
</clipPath>
</defs>
</svg>
