<svg xmlns="http://www.w3.org/2000/svg" xmlns:xlink="http://www.w3.org/1999/xlink" xmlns:lucid="lucid" width="260.5" height="251"><g transform="translate(-559.4999999918144 -739.499999992126)" lucid:page-tab-id="0_0"><path d="M-500 0h2500v1000H-500z" fill="#fff"/><path d="M560 745a5 5 0 0 1 5-5h249.5a5 5 0 0 1 5 5v240a5 5 0 0 1-5 5H565a5 5 0 0 1-5-5z" fill="#fff"/><path d="M560 780v-35a5 5 0 0 1 5-5h249.5a5 5 0 0 1 5 5v35" fill="#dedeff"/><path d="M560 745a5 5 0 0 1 5-5h249.5a5 5 0 0 1 5 5v240a5 5 0 0 1-5 5H565a5 5 0 0 1-5-5zM560 780h259.5M698.28 780v210" stroke="#282c33" fill="none"/><use xlink:href="#a" transform="matrix(1,0,0,1,570,740) translate(0 26.089501953125)"/><use xlink:href="#b" transform="matrix(1,0,0,1,565,782.5) translate(0 18.589501953125)"/><use xlink:href="#c" transform="matrix(1,0,0,1,703.2798345758615,782.5) translate(0 18.589501953125)"/><use xlink:href="#d" transform="matrix(1,0,0,1,703.2798345758615,782.5) translate(26.646679687500004 18.589501953125)"/><use xlink:href="#e" transform="matrix(1,0,0,1,565,812.5) translate(0 18.589501953125)"/><use xlink:href="#f" transform="matrix(1,0,0,1,703.2798345758615,812.5) translate(0 18.589501953125)"/><use xlink:href="#g" transform="matrix(1,0,0,1,565,842.5) translate(0 18.589501953125)"/><use xlink:href="#f" transform="matrix(1,0,0,1,703.2798345758615,842.5) translate(0 18.589501953125)"/><use xlink:href="#h" transform="matrix(1,0,0,1,565,872.5) translate(0 18.589501953125)"/><use xlink:href="#f" transform="matrix(1,0,0,1,703.2798345758615,872.5) translate(0 18.589501953125)"/><use xlink:href="#i" transform="matrix(1,0,0,1,565,902.5) translate(0 18.589501953125)"/><use xlink:href="#j" transform="matrix(1,0,0,1,703.2798345758615,902.5) translate(0 18.589501953125)"/><use xlink:href="#k" transform="matrix(1,0,0,1,565,932.5) translate(0 18.589501953125)"/><use xlink:href="#j" transform="matrix(1,0,0,1,703.2798345758615,932.5) translate(0 18.589501953125)"/><use xlink:href="#l" transform="matrix(1,0,0,1,565,962.5) translate(0 18.589501953125)"/><use xlink:href="#j" transform="matrix(1,0,0,1,703.2798345758615,962.5) translate(0 18.589501953125)"/><defs><path d="M763 24c-353 0-583-224-583-531v-983h190v968c0 214 149 370 393 370 243 0 391-156 391-370v-968h190v983c0 307-230 531-581 531" id="m"/><path d="M538 24C308 24 148-78 108-271l171-41c32 123 123 178 257 178 156 0 256-77 256-169 0-77-54-128-164-154l-186-44c-203-48-300-148-300-305 0-192 176-326 414-326 230 0 351 112 402 269l-163 42c-31-80-94-158-238-158-133 0-233 69-233 162 0 83 57 129 188 160l169 40c203 48 298 149 298 302 0 196-179 339-441 339" id="n"/><path d="M628 24c-324 0-524-230-524-574 0-343 198-582 503-582 237 0 487 146 487 559v75H286c9 234 145 362 343 362 132 0 231-58 273-172l174 48C1024-91 857 24 628 24zM287-650h624c-17-190-120-322-304-322-192 0-309 151-320 322" id="o"/><path d="M158 0v-1118h174v172h12c41-113 157-188 290-188 26 0 70 2 91 3v181c-11-2-60-10-108-10-161 0-279 109-279 260V0H158" id="p"/><g id="a"><use transform="matrix(0.008173828125000001,0,0,0.008173828125000001,0,0)" xlink:href="#m"/><use transform="matrix(0.008173828125000001,0,0,0.008173828125000001,12.456914062500001,0)" xlink:href="#n"/><use transform="matrix(0.008173828125000001,0,0,0.008173828125000001,21.292822265625002,0)" xlink:href="#o"/><use transform="matrix(0.008173828125000001,0,0,0.008173828125000001,31.052373046875005,0)" xlink:href="#p"/><use transform="matrix(0.008173828125000001,0,0,0.008173828125000001,37.35439453125001,0)" xlink:href="#n"/></g><path d="M158 0v-1118h180V0H158zm91-1301c-68 0-125-53-125-119s57-119 125-119c69 0 126 53 126 119s-57 119-126 119" id="q"/><path d="M577 24c-279 0-473-224-473-580 0-354 195-576 474-576 218 0 287 134 324 193h14v-551h180V0H922v-173h-20C865-111 790 24 577 24zm27-161c203 0 314-172 314-421 0-247-108-413-314-413-212 0-317 181-317 413 0 235 108 421 317 421" id="r"/><g id="b"><use transform="matrix(0.008173828125000001,0,0,0.008173828125000001,0,0)" xlink:href="#q"/><use transform="matrix(0.008173828125000001,0,0,0.008173828125000001,4.05421875,0)" xlink:href="#r"/></g><path d="M180 0v-1490h510c348 0 508 209 508 474 0 266-160 477-507 477H370V0H180zm190-706h312c236 0 327-133 327-310 0-176-91-307-329-307H370v617" id="s"/><path d="M180 0v-1490h190c0 262 1 526-3 784 217-279 467-523 702-784h249L716-845 1319 0h-225L585-716 370-489V0H180" id="t"/><g id="c"><use transform="matrix(0.008173828125000001,0,0,0.008173828125000001,0,0)" xlink:href="#s"/><use transform="matrix(0.008173828125000001,0,0,0.008173828125000001,10.691367187500001,0)" xlink:href="#t"/></g><path d="M471 26C259 26 90-98 90-318c0-256 228-303 435-329 202-27 287-16 287-108 0-139-79-219-234-219-161 0-248 86-283 164l-173-57c86-203 278-265 451-265 150 0 419 46 419 395V0H815v-152h-12C765-73 660 26 471 26zm31-159c199 0 310-134 310-271v-155c-30 35-226 55-295 64-131 17-246 59-246 186 0 116 97 176 231 176" id="u"/><path d="M338-1490V0H158v-1490h180" id="v"/><g id="d"><use transform="matrix(0.008173828125000001,0,0,0.008173828125000001,0,0)" xlink:href="#n"/><use transform="matrix(0.008173828125000001,0,0,0.008173828125000001,8.835908203125001,0)" xlink:href="#o"/><use transform="matrix(0.008173828125000001,0,0,0.008173828125000001,18.595458984375,0)" xlink:href="#p"/><use transform="matrix(0.008173828125000001,0,0,0.008173828125000001,25.15904296875,0)" xlink:href="#q"/><use transform="matrix(0.008173828125000001,0,0,0.008173828125000001,29.21326171875,0)" xlink:href="#u"/><use transform="matrix(0.008173828125000001,0,0,0.008173828125000001,38.613164062500005,0)" xlink:href="#v"/></g><path d="M338-670V0H158v-1118h173l1 207c72-158 192-221 342-221 226 0 378 139 378 422V0H872v-695c0-172-96-275-252-275-161 0-282 109-282 300" id="w"/><path d="M158 0v-1118h175l1 205c55-151 181-225 313-225 147 0 245 90 285 228 53-141 190-228 352-228 194 0 352 125 352 384V0h-181v-749c0-161-105-225-225-225-151 0-243 103-243 244V0H807v-767c0-124-93-207-219-207-131 0-250 92-250 270V0H158" id="x"/><g id="e"><use transform="matrix(0.008173828125000001,0,0,0.008173828125000001,0,0)" xlink:href="#w"/><use transform="matrix(0.008173828125000001,0,0,0.008173828125000001,9.89033203125,0)" xlink:href="#u"/><use transform="matrix(0.008173828125000001,0,0,0.008173828125000001,19.290234375000004,0)" xlink:href="#x"/><use transform="matrix(0.008173828125000001,0,0,0.008173828125000001,33.95408203125001,0)" xlink:href="#o"/></g><path d="M598-1118v154H368v674c0 100 37 144 132 144 23 0 62-6 92-12L629-6c-37 13-88 20-134 20-193 0-307-107-307-290v-688H20v-154h168v-266h180v266h230" id="y"/><path d="M65 0l393-574-370-544h210c88 136 192 297 267 435 67-142 176-302 264-435h206L661-564 1053 0H844c-94-144-206-310-287-458C484-308 366-142 273 0H65" id="z"/><g id="f"><use transform="matrix(0.008173828125000001,0,0,0.008173828125000001,0,0)" xlink:href="#y"/><use transform="matrix(0.008173828125000001,0,0,0.008173828125000001,5.312988281250001,0)" xlink:href="#o"/><use transform="matrix(0.008173828125000001,0,0,0.008173828125000001,14.696542968750002,0)" xlink:href="#z"/><use transform="matrix(0.008173828125000001,0,0,0.008173828125000001,24.1618359375,0)" xlink:href="#y"/></g><path d="M158 418v-1536h174v179h20c37-59 106-193 324-193 279 0 474 222 474 576 0 356-194 580-473 580-213 0-288-135-325-197h-14v591H158zm492-555c209 0 317-186 317-421 0-232-105-413-317-413-206 0-314 166-314 413 0 249 111 421 314 421" id="A"/><path d="M409 0L70-1118h191c89 329 165 560 243 925 75-353 154-601 240-925h192c85 325 161 564 235 922 77-354 157-598 244-922h191L1267 0h-179c-86-307-176-590-250-913C763-588 675-308 588 0H409" id="B"/><path d="M613 24c-304 0-509-231-509-576 0-350 205-580 509-580 305 0 511 230 511 580 0 345-206 576-511 576zm0-161c226 0 329-195 329-415 0-222-103-419-329-419-223 0-326 196-326 419 0 220 103 415 326 415" id="C"/><g id="g"><use transform="matrix(0.008173828125000001,0,0,0.008173828125000001,0,0)" xlink:href="#A"/><use transform="matrix(0.008173828125000001,0,0,0.008173828125000001,10.413457031250001,0)" xlink:href="#u"/><use transform="matrix(0.008173828125000001,0,0,0.008173828125000001,19.813359375000005,0)" xlink:href="#n"/><use transform="matrix(0.008173828125000001,0,0,0.008173828125000001,28.649267578125006,0)" xlink:href="#n"/><use transform="matrix(0.008173828125000001,0,0,0.008173828125000001,37.48517578125001,0)" xlink:href="#B"/><use transform="matrix(0.008173828125000001,0,0,0.008173828125000001,50.88208007812501,0)" xlink:href="#C"/><use transform="matrix(0.008173828125000001,0,0,0.008173828125000001,60.91954101562501,0)" xlink:href="#p"/><use transform="matrix(0.008173828125000001,0,0,0.008173828125000001,66.94365234375,0)" xlink:href="#r"/></g><path d="M934 0v166H0V0h934" id="D"/><g id="h"><use transform="matrix(0.008173828125000001,0,0,0.008173828125000001,0,0)" xlink:href="#u"/><use transform="matrix(0.008173828125000001,0,0,0.008173828125000001,9.399902343750002,0)" xlink:href="#r"/><use transform="matrix(0.008173828125000001,0,0,0.008173828125000001,19.649882812500003,0)" xlink:href="#r"/><use transform="matrix(0.008173828125000001,0,0,0.008173828125000001,29.899863281250006,0)" xlink:href="#p"/><use transform="matrix(0.008173828125000001,0,0,0.008173828125000001,35.92397460937501,0)" xlink:href="#o"/><use transform="matrix(0.008173828125000001,0,0,0.008173828125000001,45.68352539062501,0)" xlink:href="#n"/><use transform="matrix(0.008173828125000001,0,0,0.008173828125000001,54.51943359375001,0)" xlink:href="#n"/><use transform="matrix(0.008173828125000001,0,0,0.008173828125000001,63.35534179687501,0)" xlink:href="#D"/><use transform="matrix(0.008173828125000001,0,0,0.008173828125000001,71.55369140625001,0)" xlink:href="#q"/><use transform="matrix(0.008173828125000001,0,0,0.008173828125000001,75.60791015625001,0)" xlink:href="#r"/></g><path d="M613 24c-304 0-509-231-509-576 0-350 205-580 509-580 216 0 392 114 453 309l-173 49c-33-115-133-197-280-197-223 0-326 196-326 419 0 220 103 415 326 415 150 0 252-85 285-206l172 49C1010-95 832 24 613 24" id="E"/><g id="i"><use transform="matrix(0.008173828125000001,0,0,0.008173828125000001,0,0)" xlink:href="#E"/><use transform="matrix(0.008173828125000001,0,0,0.008173828125000001,9.563378906250001,0)" xlink:href="#p"/><use transform="matrix(0.008173828125000001,0,0,0.008173828125000001,15.587490234375002,0)" xlink:href="#o"/><use transform="matrix(0.008173828125000001,0,0,0.008173828125000001,25.510517578125004,0)" xlink:href="#u"/><use transform="matrix(0.008173828125000001,0,0,0.008173828125000001,34.910419921875004,0)" xlink:href="#y"/><use transform="matrix(0.008173828125000001,0,0,0.008173828125000001,40.223408203125004,0)" xlink:href="#o"/><use transform="matrix(0.008173828125000001,0,0,0.008173828125000001,49.982958984375,0)" xlink:href="#r"/><use transform="matrix(0.008173828125000001,0,0,0.008173828125000001,60.232939453125006,0)" xlink:href="#D"/><use transform="matrix(0.008173828125000001,0,0,0.008173828125000001,67.86729492187499,0)" xlink:href="#u"/><use transform="matrix(0.008173828125000001,0,0,0.008173828125000001,77.267197265625,0)" xlink:href="#y"/></g><g id="j"><use transform="matrix(0.008173828125000001,0,0,0.008173828125000001,0,0)" xlink:href="#y"/><use transform="matrix(0.008173828125000001,0,0,0.008173828125000001,5.4764648437500005,0)" xlink:href="#q"/><use transform="matrix(0.008173828125000001,0,0,0.008173828125000001,9.530683593750002,0)" xlink:href="#x"/><use transform="matrix(0.008173828125000001,0,0,0.008173828125000001,24.194531250000004,0)" xlink:href="#o"/><use transform="matrix(0.008173828125000001,0,0,0.008173828125000001,33.95408203125,0)" xlink:href="#n"/><use transform="matrix(0.008173828125000001,0,0,0.008173828125000001,42.789990234375004,0)" xlink:href="#y"/><use transform="matrix(0.008173828125000001,0,0,0.008173828125000001,48.348193359375,0)" xlink:href="#u"/><use transform="matrix(0.008173828125000001,0,0,0.008173828125000001,57.748095703125,0)" xlink:href="#x"/><use transform="matrix(0.008173828125000001,0,0,0.008173828125000001,72.411943359375,0)" xlink:href="#A"/></g><path d="M537 14c-226 0-379-139-379-422v-710h180v695c0 172 97 275 253 275 160 0 281-109 281-300v-670h181V0H879v-209C806-46 684 14 537 14" id="F"/><g id="k"><use transform="matrix(0.008173828125000001,0,0,0.008173828125000001,0,0)" xlink:href="#F"/><use transform="matrix(0.008173828125000001,0,0,0.008173828125000001,9.898505859375001,0)" xlink:href="#A"/><use transform="matrix(0.008173828125000001,0,0,0.008173828125000001,20.148486328125003,0)" xlink:href="#r"/><use transform="matrix(0.008173828125000001,0,0,0.008173828125000001,30.398466796875006,0)" xlink:href="#u"/><use transform="matrix(0.008173828125000001,0,0,0.008173828125000001,39.798369140625006,0)" xlink:href="#y"/><use transform="matrix(0.008173828125000001,0,0,0.008173828125000001,45.111357421875006,0)" xlink:href="#o"/><use transform="matrix(0.008173828125000001,0,0,0.008173828125000001,54.870908203125005,0)" xlink:href="#r"/><use transform="matrix(0.008173828125000001,0,0,0.008173828125000001,65.12088867187501,0)" xlink:href="#D"/><use transform="matrix(0.008173828125000001,0,0,0.008173828125000001,72.75524414062501,0)" xlink:href="#u"/><use transform="matrix(0.008173828125000001,0,0,0.008173828125000001,82.15514648437501,0)" xlink:href="#y"/></g><g id="l"><use transform="matrix(0.008173828125000001,0,0,0.008173828125000001,0,0)" xlink:href="#r"/><use transform="matrix(0.008173828125000001,0,0,0.008173828125000001,10.249980468750001,0)" xlink:href="#o"/><use transform="matrix(0.008173828125000001,0,0,0.008173828125000001,20.009531250000002,0)" xlink:href="#v"/><use transform="matrix(0.008173828125000001,0,0,0.008173828125000001,24.063750000000002,0)" xlink:href="#o"/><use transform="matrix(0.008173828125000001,0,0,0.008173828125000001,33.823300781250005,0)" xlink:href="#y"/><use transform="matrix(0.008173828125000001,0,0,0.008173828125000001,39.136289062500005,0)" xlink:href="#o"/><use transform="matrix(0.008173828125000001,0,0,0.008173828125000001,48.895839843750004,0)" xlink:href="#r"/><use transform="matrix(0.008173828125000001,0,0,0.008173828125000001,59.14582031250001,0)" xlink:href="#D"/><use transform="matrix(0.008173828125000001,0,0,0.008173828125000001,66.78017578125001,0)" xlink:href="#u"/><use transform="matrix(0.008173828125000001,0,0,0.008173828125000001,76.18007812500001,0)" xlink:href="#y"/></g></defs></g></svg>